<?xml version="1.0" encoding="UTF-8"?>
<svg version="1.1" xmlns="http://www.w3.org/2000/svg" width="242" height="190">
<path d="M0 0 C1.17869659 -0.01427032 2.35739319 -0.02854065 3.57180786 -0.04324341 C6.06488637 -0.06417182 8.55810783 -0.07171317 11.05126953 -0.06689453 C14.86341197 -0.07029519 18.66931566 -0.14818529 22.48046875 -0.23046875 C24.90362926 -0.2415453 27.32681484 -0.24820169 29.75 -0.25 C30.88766815 -0.2807663 32.0253363 -0.31153259 33.19747925 -0.3432312 C40.92933728 -0.23129154 40.92933728 -0.23129154 44.05476379 2.77098083 C49.87363086 11.31472529 51.85698547 20.71149326 50.56640625 30.9296875 C48.70391637 40.51564941 44.34314718 47.33165705 37.0078125 53.8046875 C27.33789825 60.27655801 17.35633392 61.79774369 6.0078125 59.8046875 C-3.06044986 57.57456668 -10.46426645 52.0759138 -15.66015625 44.3125 C-21.01353753 34.23370005 -22.4116293 24.06060266 -19.16796875 12.9921875 C-18.22409462 10.48513844 -17.27598894 8.1562857 -15.9921875 5.8046875 C-15.55414795 4.94979736 -15.1161084 4.09490723 -14.66479492 3.21411133 C-10.34707567 -0.67842282 -5.62138806 0.01194996 0 0 Z " fill="#131313" transform="translate(152.9921875,-0.8046875)"/>
<path d="M0 0 C22.44 0 44.88 0 68 0 C67.34146372 9.21950795 66.63611063 18.3818306 65.625 27.5625 C65.45484375 29.2650293 65.45484375 29.2650293 65.28125 31.00195312 C65.09949219 32.64260742 65.09949219 32.64260742 64.9140625 34.31640625 C64.7586499 35.77735718 64.7586499 35.77735718 64.60009766 37.26782227 C63.63625982 41.6560685 62.16154955 44.1875293 58.4597168 46.77685547 C55.21038269 48.49335554 51.95988902 50.20273336 48.6875 51.875 C47.55892578 52.48085938 46.43035156 53.08671875 45.26757812 53.7109375 C44.17251953 54.278125 43.07746094 54.8453125 41.94921875 55.4296875 C40.45394653 56.20675049 40.45394653 56.20675049 38.9284668 56.99951172 C34.4167287 58.54091253 31.43047263 57.62353621 27.14746094 55.7565918 C24.00837256 54.07839495 20.87299955 52.39550628 17.75 50.6875 C16.64914063 50.10548828 15.54828125 49.52347656 14.4140625 48.92382812 C13.36476563 48.35470703 12.31546875 47.78558594 11.234375 47.19921875 C10.27756836 46.68190186 9.32076172 46.16458496 8.33496094 45.6315918 C5.73259163 43.81314406 4.97168388 42.9897719 4 40 C3.56419796 37.44785447 3.21117005 34.95149227 2.9296875 32.3828125 C2.84373322 31.6480368 2.75777893 30.91326111 2.66921997 30.15621948 C2.48929098 28.60504431 2.3130079 27.05344243 2.14013672 25.50146484 C1.87658983 23.13924989 1.60139214 20.77861955 1.32421875 18.41796875 C1.15035126 16.90632925 0.9771523 15.39461268 0.8046875 13.8828125 C0.72346649 13.18261993 0.64224548 12.48242737 0.55856323 11.76101685 C0.11912299 7.77804494 0 4.03461793 0 0 Z " fill="#DA0231" transform="translate(46,0)"/>
<path d="M0 0 C3.3125 0.4375 3.3125 0.4375 6.3125 2.4375 C8.49035362 2.90195773 10.68011904 3.31164772 12.875 3.6875 C22.95353416 5.77593852 29.61629686 9.78420078 35.9375 17.8984375 C36.39125 18.40632813 36.845 18.91421875 37.3125 19.4375 C37.9725 19.4375 38.6325 19.4375 39.3125 19.4375 C39.51102452 25.00573093 39.65577806 30.57188168 39.75195312 36.14282227 C39.79205987 38.03544005 39.84656288 39.92781187 39.91601562 41.81958008 C40.47630679 57.4788941 40.47630679 57.4788941 37.67626953 62.19116211 C35.63309911 64.03405471 33.7869858 65.25338132 31.3125 66.4375 C30.42304688 66.95183594 29.53359375 67.46617187 28.6171875 67.99609375 C18.34021548 71.71364794 7.98852855 71.96845843 -2.16015625 67.69140625 C-13.35438409 62.13754669 -19.39669547 54.60697622 -24.6875 43.4375 C-25.3475 42.7775 -26.0075 42.1175 -26.6875 41.4375 C-26.62890625 39.58984375 -26.62890625 39.58984375 -26.25 37.375 C-25.74103024 33.9017009 -25.80792313 31.13573293 -26.4375 27.6875 C-26.75390625 25.421875 -26.75390625 25.421875 -26.6875 23.4375 C-24.375 20.9375 -24.375 20.9375 -21.6875 18.4375 C-21.21841964 16.24737567 -21.21841964 16.24737567 -21 13.875 C-20.59765625 11.51171875 -20.59765625 11.51171875 -19.6875 9.4375 C-17.26124478 7.96393949 -14.92277229 7.18293589 -12.21484375 6.34375 C-9.67440068 5.43280287 -8.40543833 4.54646423 -6.5 2.6875 C-3.6875 0.4375 -3.6875 0.4375 0 0 Z M17.3125 15.4375 C18.3125 17.4375 18.3125 17.4375 18.3125 17.4375 Z M37.3125 21.4375 C37.003125 22.241875 36.69375 23.04625 36.375 23.875 C35.3125 26.4375 35.3125 26.4375 34.3125 27.4375 C25.68855951 28.12426288 18.62075494 27.88851514 10.6796875 24.21484375 C7.78289345 23.2635863 6.2044903 23.55712325 3.3125 24.4375 C-1.97017773 27.34836324 -5.55841068 30.57674299 -7.29296875 36.5078125 C-8.364361 42.59671497 -7.01630993 47.26854048 -3.6875 52.4375 C-1.13986157 54.96608116 -1.13986157 54.96608116 1.3125 56.4375 C0.6525 54.1275 -0.0075 51.8175 -0.6875 49.4375 C0.02535156 49.98019531 0.73820312 50.52289063 1.47265625 51.08203125 C11.32408692 58.71605326 11.32408692 58.71605326 23.3125 60.4375 C21.6625 59.1175 20.0125 57.7975 18.3125 56.4375 C19.15554687 56.09976563 19.99859375 55.76203125 20.8671875 55.4140625 C21.96289062 54.96804687 23.05859375 54.52203125 24.1875 54.0625 C25.27804688 53.62164062 26.36859375 53.18078125 27.4921875 52.7265625 C30.37579362 51.60698662 30.37579362 51.60698662 32.3125 49.4375 C30.3325 49.4375 28.3525 49.4375 26.3125 49.4375 C26.75980469 48.97601563 27.20710938 48.51453125 27.66796875 48.0390625 C33.70681129 41.52380808 38.59907628 34.98949511 38.625 25.8125 C38.54638817 24.3525661 38.45184616 22.89289323 38.3125 21.4375 C37.9825 21.4375 37.6525 21.4375 37.3125 21.4375 Z " fill="#AE008D" transform="translate(202.6875,74.5625)"/>
<path d="M0 0 C4.51917419 -0.32077927 9.03542532 -0.5151892 13.5625 -0.6875 C15.47772461 -0.82575195 15.47772461 -0.82575195 17.43164062 -0.96679688 C21.2454338 -1.07576239 24.32160565 -1.03358451 28 0 C31.30190243 3.2521809 33.29499286 6.70718809 35 11 C35 11.66 35 12.32 35 13 C35.66 13 36.32 13 37 13 C37.226875 12.34 37.45375 11.68 37.6875 11 C38.120625 10.01 38.55375 9.02 39 8 C39.2371875 7.33162109 39.474375 6.66324219 39.71875 5.97460938 C40.88275462 3.41426857 41.86713322 1.85794038 44 0 C48.79163343 -1.02460175 53.44041949 -0.75246456 58.3125 -0.5 C59.62541016 -0.46390625 60.93832031 -0.4278125 62.29101562 -0.390625 C65.53030187 -0.29639122 68.76366962 -0.16494088 72 0 C70.73577908 4.13489783 69.19522439 7.6993981 67.015625 11.4296875 C66.41661377 12.4611792 65.81760254 13.4926709 65.20043945 14.55541992 C64.55679443 15.65088135 63.91314941 16.74634277 63.25 17.875 C62.2396413 19.60997552 61.22928293 21.34495123 60.21894836 23.0799408 C58.82840712 25.46457772 57.43274357 27.84620035 56.03729248 30.22796631 C54.36590757 33.08323657 52.70073164 35.94211936 51.03515625 38.80078125 C48.66842376 42.86247424 46.2985199 46.92228205 43.92578125 50.98046875 C41.59343315 54.97376535 39.28541398 58.97967322 37 63 C36.34 63 35.68 63 35 63 C34.08203125 61.40885417 33.1640625 59.81770833 32.24609375 58.2265625 C31.64587402 57.1862085 31.0456543 56.14585449 30.42724609 55.07397461 C29.08763413 52.75192574 27.74810175 50.42983117 26.40869141 48.10766602 C23.2287237 42.59474052 20.04816848 37.08216038 16.86347961 31.57196045 C15.85024417 29.81877691 14.83730951 28.06541992 13.82446289 26.31201172 C12.55471145 24.11407754 11.28439492 21.91646968 10.01342773 19.71923828 C8.33669819 16.81598859 6.66637997 13.9092002 5 11 C4.49243164 10.11844238 3.98486328 9.23688477 3.46191406 8.32861328 C2.77307129 7.1160083 2.77307129 7.1160083 2.0703125 5.87890625 C1.66828613 5.17451416 1.26625977 4.47012207 0.85205078 3.74438477 C0 2 0 2 0 0 Z " fill="#3FB580" transform="translate(88,80)"/>
<path d="M0 0 C21.12 0 42.24 0 64 0 C64 10.02219759 62.95019546 20.02294768 62 30 C42.2 30 22.4 30 2 30 C0 9 0 9 0 0 Z " fill="#EE652B" transform="translate(48,160)"/>
<path d="M0 0 C2.02071015 2.12374709 3.41910566 4.52954098 4.875 7.0625 C5.2771875 7.72572266 5.679375 8.38894531 6.09375 9.07226562 C7.08005387 10.7043637 8.04244199 12.35087232 9 14 C9.62132812 13.21496094 10.24265625 12.42992188 10.8828125 11.62109375 C14.355 7.3225 14.355 7.3225 17 6 C20.8143077 6.75939077 22.5684071 7.45593614 25.01049805 10.53442383 C25.87735229 12.1048645 25.87735229 12.1048645 26.76171875 13.70703125 C27.40560547 14.85107422 28.04949219 15.99511719 28.71289062 17.17382812 C29.37159807 18.38644493 30.02979682 19.5993382 30.6875 20.8125 C31.35570787 22.01462621 32.02561475 23.21580969 32.69726562 24.41601562 C33.93263657 26.63172122 35.16030177 28.85175349 36.37768555 31.07739258 C37.43068048 32.9743681 38.531804 34.84569845 39.68676758 36.68237305 C41.37501083 39.66182893 41.44929985 41.63025113 41 45 C37.36693942 47.42204038 35.68180977 47.23302891 31.36328125 47.1953125 C30.06455078 47.18886719 28.76582031 47.18242187 27.42773438 47.17578125 C26.05598693 47.1590706 24.68424214 47.14214071 23.3125 47.125 C21.92904282 47.11496674 20.54557873 47.10584149 19.16210938 47.09765625 C15.77456548 47.07404967 12.38736928 47.04112037 9 47 C10.12451727 44.0280615 11.22293791 41.66559313 13 39 C15.95064148 38.7791436 18.68368231 38.71939011 21.625 38.8125 C22.82769531 38.83280273 22.82769531 38.83280273 24.0546875 38.85351562 C26.03674378 38.88890949 28.01845551 38.94271766 30 39 C28.21696437 35.84919889 26.42215112 32.70526803 24.625 29.5625 C23.86316406 28.21575195 23.86316406 28.21575195 23.0859375 26.84179688 C22.35117188 25.56079102 22.35117188 25.56079102 21.6015625 24.25390625 C21.15119629 23.46314697 20.70083008 22.6723877 20.23681641 21.85766602 C19.12615095 19.85613143 19.12615095 19.85613143 17 19 C16.76925781 19.64839844 16.53851563 20.29679687 16.30078125 20.96484375 C14.56362814 25.01820101 12.40597624 28.7561306 10.1875 32.5625 C9.76146484 33.31724609 9.33542969 34.07199219 8.89648438 34.84960938 C5.34347179 40.95047062 1.8209925 44.66923043 -5 47 C-7.63134766 47.25878906 -7.63134766 47.25878906 -10.4140625 47.265625 C-11.42210938 47.26820313 -12.43015625 47.27078125 -13.46875 47.2734375 C-14.5103125 47.26570313 -15.551875 47.25796875 -16.625 47.25 C-17.67429687 47.25773437 -18.72359375 47.26546875 -19.8046875 47.2734375 C-21.31289063 47.26957031 -21.31289063 47.26957031 -22.8515625 47.265625 C-23.76760254 47.26336914 -24.68364258 47.26111328 -25.62744141 47.25878906 C-28 47 -28 47 -31 45 C-31.77561465 39.82489046 -30.1287583 36.80250303 -27.4921875 32.421875 C-26.94753342 31.50465668 -26.94753342 31.50465668 -26.39187622 30.56890869 C-25.23173571 28.62168833 -24.0538568 26.6859341 -22.875 24.75 C-22.10556927 23.46556277 -21.3373289 22.18041168 -20.5703125 20.89453125 C-19.08295698 18.40520727 -17.58635004 15.92187364 -16.08105469 13.44335938 C-14.76050907 11.26700821 -13.46281047 9.08214537 -12.17675781 6.88476562 C-11.64663086 5.97919922 -11.11650391 5.07363281 -10.5703125 4.140625 C-10.11672363 3.35719727 -9.66313477 2.57376953 -9.19580078 1.76660156 C-6.69056443 -1.93447852 -3.93258634 -1.2416151 0 0 Z M-4 11 C-8.31284993 16.58601596 -11.77713552 22.8777711 -15.375 28.9375 C-16.05453735 30.07433228 -16.05453735 30.07433228 -16.74780273 31.23413086 C-17.16876221 31.94964111 -17.58972168 32.66515137 -18.0234375 33.40234375 C-18.59457275 34.36901978 -18.59457275 34.36901978 -19.17724609 35.35522461 C-20.1491243 36.99160274 -20.1491243 36.99160274 -20 39 C-10.41071 39.74692358 -10.41071 39.74692358 -2 36 C2.51623821 30.33383805 2.51623821 30.33383805 3.84765625 23.51171875 C2.8768283 20.6350258 1.59248614 18.27146188 0 15.6875 C-0.53625 14.80449219 -1.0725 13.92148438 -1.625 13.01171875 C-2.305625 12.01591797 -2.305625 12.01591797 -3 11 C-3.33 11 -3.66 11 -4 11 Z " fill="#00DA80" transform="translate(31,87)"/>
<path d="M0 0 C7.26 0 14.52 0 22 0 C22 19.8 22 39.6 22 60 C14.74 60 7.48 60 0 60 C0 40.2 0 20.4 0 0 Z " fill="#F3DB1D" transform="translate(220,0)"/>
<path d="M0 0 C10.56 0 21.12 0 32 0 C31.34146372 9.21950795 30.63611063 18.3818306 29.625 27.5625 C29.5115625 28.69751953 29.398125 29.83253906 29.28125 31.00195312 C29.16007812 32.09572266 29.03890625 33.18949219 28.9140625 34.31640625 C28.8104541 35.29037354 28.7068457 36.26434082 28.60009766 37.26782227 C27.62792323 41.69402405 26.17468901 44.20552913 22.39624023 46.76098633 C21.37731689 47.27943115 20.35839355 47.79787598 19.30859375 48.33203125 C17.64473633 49.18764648 17.64473633 49.18764648 15.94726562 50.06054688 C14.78904297 50.63869141 13.63082031 51.21683594 12.4375 51.8125 C10.69436523 52.7087207 10.69436523 52.7087207 8.91601562 53.62304688 C0.31717857 58 0.31717857 58 -2 58 C-2 49.42 -2 40.84 -2 32 C1.3 32 4.6 32 8 32 C8.99 34.97 9.98 37.94 11 41 C13.31 41 15.62 41 18 41 C17.53851563 39.96746094 17.07703125 38.93492188 16.6015625 37.87109375 C10.98587851 25.28250485 5.485048 12.64608289 0 0 Z " fill="#C20230" transform="translate(82,0)"/>
<path d="M0 0 C0.66 0 1.32 0 2 0 C2.19852452 5.56823093 2.34327806 11.13438168 2.43945312 16.70532227 C2.47955987 18.59794005 2.53406288 20.49031187 2.60351562 22.38208008 C3.16380679 38.0413941 3.16380679 38.0413941 0.36376953 42.75366211 C-1.67940089 44.59655471 -3.5255142 45.81588132 -6 47 C-6.88945312 47.51433594 -7.77890625 48.02867187 -8.6953125 48.55859375 C-18.97228452 52.27614794 -29.32397145 52.53095843 -39.47265625 48.25390625 C-47.49154403 44.27544725 -53.13358703 39.60377026 -58 32 C-59.15111514 28.54665458 -59.23995786 25.70106112 -59.3125 22.0625 C-59.34988281 20.83660156 -59.38726562 19.61070313 -59.42578125 18.34765625 C-58.93316286 14.47450069 -58.01241138 13.37071428 -55 11 C-54.16121545 12.28813342 -53.32913217 13.58063256 -52.5 14.875 C-52.0359375 15.59429687 -51.571875 16.31359375 -51.09375 17.0546875 C-50 19 -50 19 -50 21 C-49.34 21 -48.68 21 -48 21 C-48 21.66 -48 22.32 -48 23 C-47.34 23 -46.68 23 -46 23 C-45.67 22.01 -45.34 21.02 -45 20 C-44.84144531 20.66386719 -44.68289062 21.32773438 -44.51953125 22.01171875 C-42.99738146 27.77234088 -41.65705759 31.22400736 -37 35 C-37.495 32.525 -37.495 32.525 -38 30 C-34.15465381 31.81367802 -30.79862645 34.14008594 -27.31640625 36.5625 C-23.37269779 39.00986039 -20.68388245 40 -16 40 C-17.32 38.68 -18.64 37.36 -20 36 C-19.14535156 35.72285156 -18.29070312 35.44570312 -17.41015625 35.16015625 C-15.75306641 34.61681641 -15.75306641 34.61681641 -14.0625 34.0625 C-12.40927734 33.52302734 -12.40927734 33.52302734 -10.72265625 32.97265625 C-8.11876525 32.26143332 -8.11876525 32.26143332 -7 31 C-8.32 30.67 -9.64 30.34 -11 30 C-10 27 -10 27 -7.75 24.9375 C-3.20077118 20.48111258 -0.28677181 15.04336587 0.3125 8.68359375 C0.3125 5.77119812 0.22446563 2.90308882 0 0 Z " fill="#F1008D" transform="translate(240,94)"/>
<path d="M0 0 C21.12 0 42.24 0 64 0 C64 10.125 64 10.125 63.5625 14.47265625 C63.42714844 15.8503418 63.42714844 15.8503418 63.2890625 17.25585938 C63.14597656 18.64514648 63.14597656 18.64514648 63 20.0625 C62.90460938 21.02349609 62.80921875 21.98449219 62.7109375 22.97460938 C62.4778808 25.31682923 62.24083651 27.65856955 62 30 C60.02 30 58.04 30 56 30 C55.63871502 21.46966011 56.77455849 13.42491041 58 5 C49.42 5 40.84 5 32 5 C32 7.31 32 9.62 32 12 C25.4 12 18.8 12 12 12 C12.33 13.32 12.66 14.64 13 16 C13.06831987 18.4157906 13.08487642 20.83334713 13.0625 23.25 C13.05347656 24.51328125 13.04445313 25.7765625 13.03515625 27.078125 C13.02355469 28.04234375 13.01195312 29.0065625 13 30 C9.37 30 5.74 30 2 30 C1.66123591 26.68797606 1.32885683 23.37551038 1 20.0625 C0.90460937 19.13630859 0.80921875 18.21011719 0.7109375 17.25585938 C0.62070312 16.33740234 0.53046875 15.41894531 0.4375 14.47265625 C0.35371094 13.64000244 0.26992188 12.80734863 0.18359375 11.94946289 C-0.06389394 7.97353367 0 3.9836244 0 0 Z " fill="#E24B26" transform="translate(48,160)"/>
<path d="M0 0 C2.23706055 -0.00537109 2.23706055 -0.00537109 5 1 C6.82995468 3.4883428 7.97801582 6.26329557 9.20703125 9.0859375 C9.76241829 10.30502304 9.76241829 10.30502304 10.32902527 11.54873657 C11.10824996 13.26812546 11.87849209 14.99160936 12.64038086 16.71875 C13.80840033 19.36570935 15.00205176 21.99981737 16.20117188 24.6328125 C16.95464941 26.30400103 17.70665294 27.97585509 18.45703125 29.6484375 C18.81320023 30.43914642 19.1693692 31.22985535 19.53633118 32.04452515 C20.02265266 33.15049545 20.02265266 33.15049545 20.51879883 34.27880859 C20.94918205 35.25024307 20.94918205 35.25024307 21.38825989 36.24130249 C22 38 22 38 22 41 C19.69 41 17.38 41 15 41 C13.68 38.03 12.36 35.06 11 32 C5.06 32 -0.88 32 -7 32 C-8.32 34.97 -9.64 37.94 -11 41 C-13.31 41 -15.62 41 -18 41 C-17.36864254 36.95931226 -16.06776933 33.68560489 -14.3125 30 C-13.77367188 28.85917969 -13.23484375 27.71835937 -12.6796875 26.54296875 C-12.12539062 25.37378906 -11.57109375 24.20460938 -11 23 C-9.97712201 20.77177081 -8.95623276 18.54262741 -7.9375 16.3125 C-5.403499 10.81659281 -2.75012121 5.39072432 0 0 Z " fill="#FDF7F8" transform="translate(78,0)"/>
<path d="M0 0 C4.50178614 -0.67019072 8.52889043 -0.96180845 13 0 C16.28217758 3.2239454 18.25081762 6.7637983 20 11 C20 11.66 20 12.32 20 13 C20.66 13 21.32 13 22 13 C22.226875 12.34 22.45375 11.68 22.6875 11 C23.120625 10.01 23.55375 9.02 24 8 C24.24878906 7.30261719 24.49757813 6.60523437 24.75390625 5.88671875 C25.92702754 3.29665096 26.77948366 1.8071925 29 0 C33.73313423 -0.70379181 38.24982661 -0.46280444 43 0 C42.57332031 0.74378906 42.14664063 1.48757812 41.70703125 2.25390625 C35.09046089 13.80903015 28.54550216 25.40451105 22 37 C21.34 37 20.68 37 20 37 C12 23 12 23 4 9 C3.62645386 8.36949738 3.25290771 7.73899475 2.86804199 7.08938599 C0 2.21146188 0 2.21146188 0 0 Z " fill="#34495E" transform="translate(103,80)"/>
<path d="M0 0 C2.21163336 1.14174574 4.14493963 2.42185592 6.140625 3.90625 C8.21508744 5.33801342 8.21508744 5.33801342 12 5 C13.90938211 3.92171251 13.90938211 3.92171251 15.75 2.5 C20.10703932 -0.36668755 22.84173354 -0.69942596 28 0 C30.17476401 1.54338091 30.81832637 2.63665273 32 5 C32.07116382 7.37402501 32.08409085 9.75000677 32.0625 12.125 C32.05347656 13.40632812 32.04445312 14.68765625 32.03515625 16.0078125 C32.02355469 16.99523437 32.01195312 17.98265625 32 19 C33.06541016 19.50660156 33.06541016 19.50660156 34.15234375 20.0234375 C35.53099609 20.69246094 35.53099609 20.69246094 36.9375 21.375 C38.31228516 22.03628906 38.31228516 22.03628906 39.71484375 22.7109375 C42 24 42 24 43 26 C38.07872966 26.16682272 34.49656104 26.24828052 30 24 C30 24.66 30 25.32 30 26 C28.35 26 26.7 26 25 26 C25.33 24.68 25.66 23.36 26 22 C25.01 22 24.02 22 23 22 C23.495 23.98 23.495 23.98 24 26 C22.35 26 20.7 26 19 26 C18.34 24.35 17.68 22.7 17 21 C12.38 21 7.76 21 3 21 C2.01 23.475 2.01 23.475 1 26 C-0.65 26 -2.3 26 -4 26 C-3.67 25.01 -3.34 24.02 -3 23 C-3.99 22.67 -4.98 22.34 -6 22 C-5.67 23.32 -5.34 24.64 -5 26 C-6.65 26 -8.3 26 -10 26 C-10 25.34 -10 24.68 -10 24 C-10.66 24.33 -11.32 24.66 -12 25 C-15.86061033 26.28687011 -18.94150283 26.13757618 -23 26 C-19.7129243 22.18699218 -16.60272162 20.77027754 -12 19 C-12.02320313 18.03578125 -12.04640625 17.0715625 -12.0703125 16.078125 C-12.09738281 14.18320313 -12.09738281 14.18320313 -12.125 12.25 C-12.14820313 10.99703125 -12.17140625 9.7440625 -12.1953125 8.453125 C-12.01472805 5.26039184 -11.79769093 3.58968064 -10 1 C-6.75476637 -0.62261682 -3.50678755 -0.57831233 0 0 Z M-7 4 C-8.38226016 6.76452033 -8.09525387 9.0461363 -8.0625 12.125 C-8.05347656 13.22070312 -8.04445312 14.31640625 -8.03515625 15.4453125 C-8.02355469 16.28835937 -8.01195312 17.13140625 -8 18 C-1.62067378 18.22277475 -1.62067378 18.22277475 3.77734375 15.375 C5.30928967 13.24707395 5.30928967 13.24707395 7 10 C1.8756578 5.48897902 1.8756578 5.48897902 -4.5 3.625 C-5.7375 3.810625 -5.7375 3.810625 -7 4 Z M13 10 C15.09710436 13.85026105 15.09710436 13.85026105 18 17 C21.34517639 17.89885656 24.54651386 18.04694059 28 18 C28.02694851 16.04174127 28.04637218 14.08337774 28.0625 12.125 C28.07410156 11.03445312 28.08570313 9.94390625 28.09765625 8.8203125 C28.19744303 6.04822454 28.19744303 6.04822454 27 4 C20.71486626 3.05722994 17.52668383 6.13968079 13 10 Z M9 14 C8.01 15.485 8.01 15.485 7 17 C8.98 17 10.96 17 13 17 C12.34 16.01 11.68 15.02 11 14 C10.34 14 9.68 14 9 14 Z " fill="#0BB1E9" transform="translate(158,164)"/>
<path d="M0 0 C13.2 0 26.4 0 40 0 C39.67 2.64 39.34 5.28 39 8 C29.1 8 19.2 8 9 8 C9 10.31 9 12.62 9 15 C18.9 15 28.8 15 39 15 C39 15.66 39 16.32 39 17 C26.46 17 13.92 17 1 17 C0.67 11.39 0.34 5.78 0 0 Z " fill="#EBDDD9" transform="translate(60,173)"/>
<path d="M0 0 C3.69558882 3.89700716 5.50554894 6.98098663 5.3984375 12.55078125 C4.33984375 14.23046875 4.33984375 14.23046875 2.3984375 15.55078125 C-6.00090932 16.57803949 -13.79627249 15.83721915 -21.6015625 12.55078125 C-23.06729677 5.34425444 -23.06729677 5.34425444 -20.9140625 1.67578125 C-15.08342489 -3.68210196 -6.31283044 -5.71234169 0 0 Z M-14.6015625 2.55078125 C-13.6015625 4.55078125 -13.6015625 4.55078125 -13.6015625 4.55078125 Z " fill="#D4008C" transform="translate(234.6015625,87.44921875)"/>
<path d="M0 0 C6 0 6 0 8.421875 2.16796875 C9.19015625 3.16441406 9.9584375 4.16085938 10.75 5.1875 C11.17047607 5.72270264 11.59095215 6.25790527 12.02416992 6.80932617 C13.36688941 8.52678125 14.68292736 10.26283075 16 12 C16.89530954 13.14986151 17.79243311 14.29831296 18.69140625 15.4453125 C20.40840237 17.64324484 22.10771677 19.85280452 23.7890625 22.078125 C25.09972062 23.81023149 26.42307665 25.5330393 27.7734375 27.234375 C29.1875 29.0625 29.1875 29.0625 31 32 C30.61328125 34.18359375 30.61328125 34.18359375 30 36 C24.49654997 33.456739 21.54677846 28.96388078 18 24.25 C17.39671875 23.46367188 16.7934375 22.67734375 16.171875 21.8671875 C12.68526417 17.30427506 9.3405351 12.67674914 6 8 C5.67 14.6 5.34 21.2 5 28 C3.35 28 1.7 28 0 28 C0 18.76 0 9.52 0 0 Z " fill="#EFEFEF" transform="translate(154,10)"/>
<path d="M0 0 C0.33 0.66 0.66 1.32 1 2 C2.65 2 4.3 2 6 2 C6.33 2.66 6.66 3.32 7 4 C9.30965848 5.05352843 11.6429774 6.05719096 14 7 C11.73272666 8.74405642 9.5987562 10.21342755 7.0625 11.5625 C2.10923034 15.5048983 -0.0273478 21.08204339 -2 27 C-2.66 27 -3.32 27 -4 27 C-4 26.34 -4 25.68 -4 25 C-4.66 25 -5.32 25 -6 25 C-7.5078125 23.03125 -7.5078125 23.03125 -9.125 20.5 C-9.66382813 19.6646875 -10.20265625 18.829375 -10.7578125 17.96875 C-11.16773438 17.3190625 -11.57765625 16.669375 -12 16 C-12.66 16.33 -13.32 16.66 -14 17 C-12.67036433 11.51525288 -8.50248145 8.09378428 -4 5 C-3.01 5 -2.02 5 -1 5 C-0.67 3.35 -0.34 1.7 0 0 Z " fill="#99008D" transform="translate(196,90)"/>
<path d="M0 0 C1.19625 0.185625 2.3925 0.37125 3.625 0.5625 C3.7064222 2.79105574 3.76438079 5.02047655 3.8125 7.25 C3.86470703 9.11205078 3.86470703 9.11205078 3.91796875 11.01171875 C3.59691003 14.90295047 3.35363074 16.74859954 0.625 19.5625 C-2.31593052 19.94109559 -4.65144958 20.04025614 -7.5625 19.875 C-8.31208984 19.85244141 -9.06167969 19.82988281 -9.83398438 19.80664062 C-11.6818447 19.74779157 -13.52867667 19.65810938 -15.375 19.5625 C-13.78291709 16.18812958 -12.1072763 12.86707985 -10.375 9.5625 C-9.91738281 8.68207031 -9.45976562 7.80164063 -8.98828125 6.89453125 C-4.99258971 0.00880527 -4.99258971 0.00880527 0 0 Z " fill="#5E7BFB" transform="translate(238.375,170.4375)"/>
<path d="M0 0 C3.3125 0.4375 3.3125 0.4375 6.3125 2.4375 C6.3125 3.0975 6.3125 3.7575 6.3125 4.4375 C5.70664063 4.51226562 5.10078125 4.58703125 4.4765625 4.6640625 C-3.63981721 5.93770978 -10.49364421 8.51749955 -15.80078125 15.03125 C-22.3086713 24.8402437 -22.97654058 32.85981881 -22.6875 44.4375 C-24.70703125 43.1953125 -24.70703125 43.1953125 -26.6875 41.4375 C-26.82421875 39.4921875 -26.82421875 39.4921875 -26.375 37.3125 C-25.77887887 33.82661073 -25.79253118 31.16219687 -26.4375 27.6875 C-26.75390625 25.421875 -26.75390625 25.421875 -26.6875 23.4375 C-24.375 20.9375 -24.375 20.9375 -21.6875 18.4375 C-21.21841964 16.24737567 -21.21841964 16.24737567 -21 13.875 C-20.59765625 11.51171875 -20.59765625 11.51171875 -19.6875 9.4375 C-17.26124478 7.96393949 -14.92277229 7.18293589 -12.21484375 6.34375 C-9.67440068 5.43280287 -8.40543833 4.54646423 -6.5 2.6875 C-3.6875 0.4375 -3.6875 0.4375 0 0 Z " fill="#F8008D" transform="translate(202.6875,74.5625)"/>
<path d="M0 0 C0.66 0 1.32 0 2 0 C2 10.56 2 21.12 2 32 C-4.75 35.375 -4.75 35.375 -10 35 C-10.33 34.34 -10.66 33.68 -11 33 C-9.68 32.34 -8.36 31.68 -7 31 C-8.32 30.67 -9.64 30.34 -11 30 C-10 27 -10 27 -7.75 24.9375 C-3.20077118 20.48111258 -0.28677181 15.04336587 0.3125 8.68359375 C0.3125 5.77119812 0.22446563 2.90308882 0 0 Z " fill="#9F008B" transform="translate(240,94)"/>
<path d="M0 0 C4.82402913 15.35194175 4.82402913 15.35194175 2 21 C1.34 21 0.68 21 0 21 C0 20.34 0 19.68 0 19 C-0.66 19 -1.32 19 -2 19 C-3.5078125 17.03125 -3.5078125 17.03125 -5.125 14.5 C-5.93324219 13.24703125 -5.93324219 13.24703125 -6.7578125 11.96875 C-7.37269531 10.99421875 -7.37269531 10.99421875 -8 10 C-8.99 10.495 -8.99 10.495 -10 11 C-9.00777755 7.25160409 -4.59265824 0 0 0 Z " fill="#B7008C" transform="translate(192,96)"/>
<path d="M0 0 C2.5 1.6875 2.5 1.6875 4 4 C3.9375 6.625 3.9375 6.625 3 9 C-0.71013399 11.47342266 -2.61060262 11.38503486 -7 11 C-9.4375 9.9375 -9.4375 9.9375 -11 8 C-11.25 4.3125 -11.25 4.3125 -11 1 C-7.28983366 -0.18725323 -3.87209322 -0.34572261 0 0 Z " fill="#E6008D" transform="translate(230,89)"/>
<path d="M0 0 C6.6 0 13.2 0 20 0 C19.67 2.31 19.34 4.62 19 7 C12.73 7 6.46 7 0 7 C0 4.69 0 2.38 0 0 Z " fill="#FEFEFE" transform="translate(80,173)"/>
<path d="M0 0 C2.74277578 3.19990508 4.6302836 6.00499382 6 10 C6.66 10 7.32 10 8 10 C8 10.66 8 11.32 8 12 C8.66 12 9.32 12 10 12 C10.33 11.01 10.66 10.02 11 9 C11.99 12.63 12.98 16.26 14 20 C7.78928197 17.51571279 2.60845457 14.1498902 -0.5 8.0625 C-0.665 7.381875 -0.83 6.70125 -1 6 C-1.66 6 -2.32 6 -3 6 C-1.125 1.125 -1.125 1.125 0 0 Z " fill="#D3008C" transform="translate(184,105)"/>
<path d="M0 0 C4.62 0 9.24 0 14 0 C14.33 0.66 14.66 1.32 15 2 C14.34 3.32 13.68 4.64 13 6 C7.72 6 2.44 6 -3 6 C-2.01 4.02 -1.02 2.04 0 0 Z " fill="#516CFB" transform="translate(226,184)"/>
<path d="M0 0 C0.66 0 1.32 0 2 0 C2.83790789 1.78953185 3.67019396 3.58169695 4.5 5.375 C4.9640625 6.37273438 5.428125 7.37046875 5.90625 8.3984375 C7 11 7 11 7 13 C3.04 13 -0.92 13 -5 13 C-2.05357143 3.89285714 -2.05357143 3.89285714 0 0 Z " fill="#DC0C3A" transform="translate(79,12)"/>
<path d="M0 0 C1.2065625 0.0309375 1.2065625 0.0309375 2.4375 0.0625 C2.4375 2.0425 2.4375 4.0225 2.4375 6.0625 C-0.47881827 6.33853012 -3.39239715 6.58408705 -6.3125 6.8125 C-7.55 6.93431641 -7.55 6.93431641 -8.8125 7.05859375 C-14.98547754 7.50663244 -14.98547754 7.50663244 -18.140625 5.078125 C-18.84445313 4.08039063 -18.84445313 4.08039063 -19.5625 3.0625 C-14.14411431 1.86317352 -9.13992539 0.91948909 -3.5625 1.0625 C-2.5625 0.0625 -2.5625 0.0625 0 0 Z " fill="#D3008C" transform="translate(239.5625,126.9375)"/>
<path d="M0 0 C2 2 2 2 2.375 4.8125 C2 8 2 8 0.0546875 10.1796875 C-2.62958454 13.86418258 -2.86824089 16.86262042 -3.25 21.3125 C-3.32734375 22.05306641 -3.4046875 22.79363281 -3.484375 23.55664062 C-3.67151741 25.36958268 -3.83787704 27.18464954 -4 29 C-7.32124338 23.4293089 -6.76139838 16.53059387 -5.4296875 10.35546875 C-4.19156283 6.42605203 -2.81854187 3.08697443 0 0 Z " fill="#72008C" transform="translate(185,92)"/>
<path d="M0 0 C3.63 0 7.26 0 11 0 C11 2.31 11 4.62 11 7 C7.37 7 3.74 7 0 7 C0 4.69 0 2.38 0 0 Z " fill="#E34D28" transform="translate(69,181)"/>
<path d="M0 0 C1.65 0 3.3 0 5 0 C5.02696365 1.79158489 5.04637917 3.58328473 5.0625 5.375 C5.07410156 6.37273438 5.08570313 7.37046875 5.09765625 8.3984375 C5 11 5 11 4 13 C2.68 13 1.36 13 0 13 C0 8.71 0 4.42 0 0 Z " fill="#A3A3A3" transform="translate(178,9)"/>
<path d="M0 0 C-0.22788722 1.96102954 -0.48305057 3.91890505 -0.75 5.875 C-0.88921875 6.96554688 -1.0284375 8.05609375 -1.171875 9.1796875 C-2 12 -2 12 -4.078125 13.3828125 C-4.71234375 13.58648437 -5.3465625 13.79015625 -6 14 C-6.144375 13.236875 -6.28875 12.47375 -6.4375 11.6875 C-6.9632594 8.91827092 -6.9632594 8.91827092 -8 6 C-3.85714286 0 -3.85714286 0 0 0 Z " fill="#84008D" transform="translate(193,85)"/>
<path d="M0 0 C0.66 0 1.32 0 2 0 C2.14584064 3.22868746 2.23424106 6.45652365 2.3125 9.6875 C2.35439453 10.59951172 2.39628906 11.51152344 2.43945312 12.45117188 C2.5608921 19.13031568 2.5608921 19.13031568 0.86474609 21.76025391 C-0.51953125 23.14453125 -0.51953125 23.14453125 -3 25 C-3.8441363 22.62155307 -4.17903098 21.44622798 -3.22265625 19.0625 C-2.83980469 18.381875 -2.45695313 17.70125 -2.0625 17 C0.65820235 11.39965392 0.37184029 6.10437806 0 0 Z " fill="#7E018C" transform="translate(240,94)"/>
<path d="M0 0 C0.66 0.66 1.32 1.32 2 2 C-4.27692308 6.06153846 -4.27692308 6.06153846 -7.9375 5.75 C-8.618125 5.5025 -9.29875 5.255 -10 5 C-9.625 2.5625 -9.625 2.5625 -9 0 C-5.88135455 -1.55932272 -3.33704665 -0.65549131 0 0 Z " fill="#F8008E" transform="translate(206,85)"/>
<path d="M0 0 C2.64752004 2.57784846 4.94432065 4.91648098 7 8 C6.625 10.1875 6.625 10.1875 6 12 C1.05848696 9.59983652 -1.04331244 6.47726973 -4 2 C-3.01 2 -2.02 2 -1 2 C-0.67 1.34 -0.34 0.68 0 0 Z " fill="#B7B6B6" transform="translate(178,34)"/>
<path d="M0 0 C0.99 0 1.98 0 3 0 C3 1.98 3 3.96 3 6 C-1.22949995 8.41685712 -4.12335991 9.34833144 -9 9 C-9.33 8.34 -9.66 7.68 -10 7 C-4.25 4 -4.25 4 -2 4 C-1.67 3.34 -1.34 2.68 -1 2 C-0.67 1.34 -0.34 0.68 0 0 Z " fill="#B7018B" transform="translate(239,120)"/>
<path d="M0 0 C2.31 0 4.62 0 7 0 C7 3.96 7 7.92 7 12 C3.74190431 8.74190431 2.13405085 6.04733782 0 2 C0 1.34 0 0.68 0 0 Z " fill="#7487FD" transform="translate(235,171)"/>
<path d="M0 0 C2.90092502 2.90092502 3.55461795 3.96517325 4.6875 7.6875 C4.93886719 8.49574219 5.19023438 9.30398437 5.44921875 10.13671875 C5.63097656 10.75160156 5.81273438 11.36648437 6 12 C4.02 12 2.04 12 0 12 C0 8.04 0 4.08 0 0 Z " fill="#C40D39" transform="translate(80,13)"/>
<path d="M0 0 C5.41538462 -0.36923077 5.41538462 -0.36923077 8.375 1.5 C8.91125 1.995 9.4475 2.49 10 3 C7.03 4.32 4.06 5.64 1 7 C0.67 4.69 0.34 2.38 0 0 Z " fill="#7C008C" transform="translate(200,95)"/>
<path d="M0 0 C2.5 2.3125 2.5 2.3125 5 5 C5 5.99 5 6.98 5 8 C3.68 8.33 2.36 8.66 1 9 C-0.65 6.69 -2.3 4.38 -4 2 C-3.01 2 -2.02 2 -1 2 C-0.67 1.34 -0.34 0.68 0 0 Z " fill="#2D2D2C" transform="translate(185,43)"/>
<path d="M0 0 C0.33 0 0.66 0 1 0 C1 2.64 1 5.28 1 8 C-0.65 8.33 -2.3 8.66 -4 9 C-4 6.69 -4 4.38 -4 2 C-2.68 2 -1.36 2 0 2 C0 1.34 0 0.68 0 0 Z " fill="#3C3C3C" transform="translate(182,20)"/>
<path d="M0 0 C0.66 0 1.32 0 2 0 C2.66 1.98 3.32 3.96 4 6 C1.69 6 -0.62 6 -3 6 C-2.01 4.02 -1.02 2.04 0 0 Z " fill="#4768E5" transform="translate(226,184)"/>
<path d="M0 0 C0.66 0.66 1.32 1.32 2 2 C1.625 4.125 1.625 4.125 1 6 C-3.875 3.25 -3.875 3.25 -5 1 C-2.525 1.495 -2.525 1.495 0 2 C0 1.34 0 0.68 0 0 Z " fill="#7B7B7B" transform="translate(183,40)"/>
<path d="M0 0 C0.66 0.33 1.32 0.66 2 1 C1.67 2.32 1.34 3.64 1 5 C0.01 5 -0.98 5 -2 5 C-2.66 4.01 -3.32 3.02 -4 2 C-3.01 2 -2.02 2 -1 2 C-0.67 1.34 -0.34 0.68 0 0 Z " fill="#525252" transform="translate(185,43)"/>
<path d="M0 0 C1.98 0 3.96 0 6 0 C6 0.33 6 0.66 6 1 C4.02 1 2.04 1 0 1 C0 0.67 0 0.34 0 0 Z " fill="#0AB0E9" transform="translate(165,189)"/>
</svg>
