<?xml version="1.0" encoding="UTF-8"?>
<svg version="1.1" xmlns="http://www.w3.org/2000/svg" width="500" height="500">
<path d="M0 0 C0 0.66 0 1.32 0 2 C0.61875 2.144375 1.2375 2.28875 1.875 2.4375 C4 3 4 3 6 4 C6 4.66 6 5.32 6 6 C6.66 6 7.32 6 8 6 C8 6.66 8 7.32 8 8 C8.556875 8.226875 9.11375 8.45375 9.6875 8.6875 C12.66159588 10.37550036 14.72008865 12.46676517 17 15 C17 15.66 17 16.32 17 17 C17.66 17 18.32 17 19 17 C28.80598287 28.64640194 33.96790158 44.86286567 34.25 59.9375 C34.4757508 64.99808036 35.55136451 67.28843663 39 71 C39.721875 71.66 40.44375 72.32 41.1875 73 C45.15737146 77.38054782 44.18318531 83.83271479 44.1875 89.4375 C44.19974609 90.27087891 44.21199219 91.10425781 44.22460938 91.96289062 C44.24169925 99.16912266 43.19992161 104.64713952 38 110 C37.32453125 110.13019531 36.6490625 110.26039063 35.953125 110.39453125 C35.30859375 110.59433594 34.6640625 110.79414063 34 111 C33.07076949 112.71330084 33.07076949 112.71330084 32.625 114.875 C30.30913116 122.80969816 25.98598477 130.41137727 21 137 C20.34 137 19.68 137 19 137 C18.34 138.65 17.68 140.3 17 142 C16.34 142 15.68 142 15 142 C15 142.66 15 143.32 15 144 C14.34 144 13.68 144 13 144 C13 144.66 13 145.32 13 146 C10.525 146.99 10.525 146.99 8 148 C8 148.66 8 149.32 8 150 C0.01485616 156.46944524 -9.11932416 160.4889711 -19 163 C-19.78503906 163.20753906 -20.57007813 163.41507813 -21.37890625 163.62890625 C-40.99148107 168.01794881 -61.57994979 164.95337282 -78.875 154.8125 C-84.2281584 151.34486703 -89.34421605 147.35623903 -94 143 C-94 142.34 -94 141.68 -94 141 C-94.66 141 -95.32 141 -96 141 C-97.7265625 138.91796875 -97.7265625 138.91796875 -99.625 136.1875 C-100.25664063 135.29417969 -100.88828125 134.40085937 -101.5390625 133.48046875 C-103 131 -103 131 -103 128 C-103.66 128 -104.32 128 -105 128 C-105 126.68 -105 125.36 -105 124 C-105.66 124 -106.32 124 -107 124 C-107 122.68 -107 121.36 -107 120 C-107.66 120 -108.32 120 -109 120 C-109.14695312 119.38511719 -109.29390625 118.77023437 -109.4453125 118.13671875 C-110.80648254 112.73623392 -110.80648254 112.73623392 -114.9375 109.3125 C-115.948125 108.879375 -116.95875 108.44625 -118 108 C-123.833013 100.590497 -123.52114873 93.68645829 -122.69140625 84.6328125 C-121.37867674 74.38655206 -121.37867674 74.38655206 -117 70 C-114.75 69.1875 -114.75 69.1875 -113 69 C-113.04640625 68.1028125 -113.0928125 67.205625 -113.140625 66.28125 C-113.76557058 44.67598838 -105.72402206 24.85336094 -91 9 C-87.20800983 5.62934207 -83.25914511 2.75034991 -79 0 C-77.69095703 -0.86238281 -77.69095703 -0.86238281 -76.35546875 -1.7421875 C-52.72173798 -15.98620514 -23.48371894 -11.8804649 0 0 Z M-43 17 C-43 24.26 -43 31.52 -43 39 C-41.02 39 -39.04 39 -37 39 C-35.41062444 37.41062444 -35.87018857 35.76100154 -35.8671875 33.5625 C-35.86589844 32.66789062 -35.86460937 31.77328125 -35.86328125 30.8515625 C-35.86714844 29.91054687 -35.87101562 28.96953125 -35.875 28 C-35.86919922 26.58847656 -35.86919922 26.58847656 -35.86328125 25.1484375 C-35.86457031 24.25382812 -35.86585938 23.35921875 -35.8671875 22.4375 C-35.86831543 21.61121094 -35.86944336 20.78492188 -35.87060547 19.93359375 C-35.78735193 17.99320961 -35.78735193 17.99320961 -37 17 C-38.98 17 -40.96 17 -43 17 Z M-63 25 C-64.33901792 26.11126659 -64.33901792 26.11126659 -64.09765625 28.94140625 C-64.08605469 30.13636719 -64.07445312 31.33132812 -64.0625 32.5625 C-64.05347656 33.76003906 -64.04445312 34.95757812 -64.03515625 36.19140625 C-64.02355469 37.11824219 -64.01195312 38.04507813 -64 39 C-61.69 39 -59.38 39 -57 39 C-57 34.38 -57 29.76 -57 25 C-58.98 25 -60.96 25 -63 25 Z M-23 25 C-24.0390717 32.02782042 -24.0390717 32.02782042 -23 39 C-20.66705225 39.04241723 -18.33297433 39.04092937 -16 39 C-14.69452245 37.91830354 -14.69452245 37.91830354 -14.8671875 35.3125 C-14.87105469 33.6728125 -14.87105469 33.6728125 -14.875 32 C-14.87242187 30.906875 -14.86984375 29.81375 -14.8671875 28.6875 C-14.69452245 26.08169646 -14.69452245 26.08169646 -16 25 C-18.33297433 24.95907063 -20.66705225 24.95758277 -23 25 Z M-5.9903717 49.01777649 C-7.46371644 49.0262673 -8.93705929 49.03508963 -10.41040039 49.04418945 C-11.62642693 49.05159149 -11.62642693 49.05159149 -12.86701965 49.05914307 C-20.28503821 49.10623087 -27.70290745 49.16825154 -35.12076664 49.23571491 C-40.09489932 49.28054706 -45.0689468 49.31979986 -50.04321289 49.34643555 C-54.86898397 49.37246394 -59.69444106 49.41284253 -64.52001762 49.46318626 C-66.3543451 49.47983368 -68.18872662 49.49136117 -70.02311897 49.49761391 C-72.58874603 49.50725426 -75.15356628 49.5353054 -77.71899414 49.56762695 C-78.47188721 49.56619186 -79.22478027 49.56475677 -80.00048828 49.5632782 C-85.56102111 49.66218119 -89.70081156 50.882585 -93.828125 54.68359375 C-94.29734375 55.26238281 -94.7665625 55.84117187 -95.25 56.4375 C-95.72953125 57.01371094 -96.2090625 57.58992188 -96.703125 58.18359375 C-99.0266511 61.43793 -100.24620249 64.04961617 -100.29052734 68.07495117 C-100.30328705 68.86645065 -100.31604675 69.65795013 -100.32919312 70.47343445 C-100.33141876 71.32138077 -100.33364441 72.16932709 -100.3359375 73.04296875 C-100.3425943 73.92600174 -100.3492511 74.80903473 -100.35610962 75.71882629 C-100.3662264 77.58735069 -100.37092694 79.45591114 -100.37060547 81.32446289 C-100.37495823 84.16028808 -100.41123055 86.99453027 -100.44921875 89.83007812 C-100.45509148 91.65103639 -100.45905782 93.47200199 -100.4609375 95.29296875 C-100.47530853 96.13079391 -100.48967957 96.96861908 -100.50448608 97.83183289 C-100.44813573 105.22456542 -98.33174602 111.10107252 -93.6875 116.875 C-87.51459624 121.75590065 -80.93426985 123.14925509 -73.19897461 123.17700195 C-72.00809235 123.18685875 -72.00809235 123.18685875 -70.79315186 123.19691467 C-68.16288149 123.21663952 -65.53266834 123.22831151 -62.90234375 123.23828125 C-61.55163882 123.24439454 -61.55163882 123.24439454 -60.17364693 123.25063133 C-55.40295771 123.27149354 -50.63229723 123.28579182 -45.86157227 123.29516602 C-40.95132422 123.30620096 -36.04153303 123.34056657 -31.13144588 123.38033772 C-27.34197696 123.40658531 -23.55261525 123.4148653 -19.76306343 123.41844749 C-17.95429987 123.42329632 -16.14554055 123.43486131 -14.33686638 123.45348549 C1.2554752 123.67675284 1.2554752 123.67675284 14.875 116.6875 C20.1715703 109.98889639 22.16540167 104.61583101 22.23828125 96.1171875 C22.25038887 94.78483566 22.25038887 94.78483566 22.26274109 93.42556763 C22.27658851 91.54089309 22.28730772 89.6561934 22.29516602 87.77148438 C22.31230815 84.9070574 22.35617907 82.04380604 22.40039062 79.1796875 C22.41052398 77.34636264 22.41903807 75.51302797 22.42578125 73.6796875 C22.45204338 72.40579666 22.45204338 72.40579666 22.47883606 71.10617065 C22.45705563 65.0476115 21.04639474 61.24102007 18 56 C17.34 56 16.68 56 16 56 C16 55.34 16 54.68 16 54 C8.7425649 48.43034051 2.84420353 48.97841982 -5.9903717 49.01777649 Z " fill="#F3F3F3" transform="translate(168,145)"/>
<path d="M0 0 C1.21236328 0.52787109 1.21236328 0.52787109 2.44921875 1.06640625 C11.22042138 5.13635173 18.12861218 10.58748632 24.29296875 18.0078125 C26.60094849 20.70133576 29.13865127 23.12004405 31.71484375 25.5546875 C33 27 33 27 33 29 C38.29704203 24.61867003 42.91854155 19.99361277 47.3359375 14.72265625 C47.88507813 14.15417969 48.43421875 13.58570313 49 13 C49.66 13 50.32 13 51 13 C51 12.34 51 11.68 51 11 C51.66 11 52.32 11 53 11 C53 10.34 53 9.68 53 9 C62.81411435 -0.3595096 75.61827313 -3.63005589 88.84765625 -3.3203125 C97.59907042 -2.83828598 105.70240645 0.24807862 113 5 C113 5.66 113 6.32 113 7 C113.556875 7.226875 114.11375 7.45375 114.6875 7.6875 C122.73610534 12.25562736 128.09501866 21.7372584 131.25 30.203125 C134.89679593 43.80263484 133.43448015 57.60950104 127 70 C123.75273859 75.38986083 120.42203092 80.59186628 115 84 C114.34 84 113.68 84 113 84 C113 84.66 113 85.32 113 86 C111.14985947 86.96608323 109.29466527 87.9224907 107.4375 88.875 C106.40496094 89.40867187 105.37242187 89.94234375 104.30859375 90.4921875 C97.94027035 93.39439863 92.22016112 94.38978998 85.3125 94.375 C84.13046997 94.37258301 84.13046997 94.37258301 82.92456055 94.37011719 C73.2560063 94.168915 65.11485411 91.16399807 57 86 C57 85.34 57 84.68 57 84 C56.26523437 83.75507813 55.53046875 83.51015625 54.7734375 83.2578125 C51.68213572 81.85584183 49.97452268 80.30934299 47.625 77.875 C46.46484375 76.68197266 46.46484375 76.68197266 45.28125 75.46484375 C42.57753528 72.54353555 40.00741068 69.53092193 37.5078125 66.43359375 C35.98439933 64.65547727 35.98439933 64.65547727 33 65 C31.5133717 66.19674975 31.5133717 66.19674975 30.15234375 67.84375 C29.62962891 68.43027344 29.10691406 69.01679688 28.56835938 69.62109375 C28.03017578 70.24113281 27.49199219 70.86117187 26.9375 71.5 C24.99845719 73.71802518 23.03609001 75.86723233 21 78 C20.34 78 19.68 78 19 78 C18.7525 78.61875 18.505 79.2375 18.25 79.875 C16.79371361 82.35068687 15.62187494 82.95125002 13 84 C13 84.66 13 85.32 13 86 C-1.39478571 94.14649961 -14.8352637 96.92711451 -30.89453125 92.8984375 C-42.88993985 89.42806772 -52.37747735 80.45475576 -59 70 C-66.03211163 56.24439605 -66.39829209 42.60161747 -62 28 C-58.16693042 17.59810136 -50.5771564 8.61716364 -41 3 C-40.06220703 2.44892578 -40.06220703 2.44892578 -39.10546875 1.88671875 C-27.42747503 -4.44749875 -12.15158732 -5.61362754 0 0 Z M-30 24 C-30 24.66 -30 25.32 -30 26 C-30.61875 26.2475 -31.2375 26.495 -31.875 26.75 C-34.35068687 28.20628639 -34.95125002 29.37812506 -36 32 C-36.66 32 -37.32 32 -38 32 C-41.79951693 38.64915463 -41.9299261 45.48586498 -41 53 C-39.70385154 56.60491289 -38.0743959 59.78468636 -36 63 C-35.34 63 -34.68 63 -34 63 C-34 63.66 -34 64.32 -34 65 C-28.59406802 69.99009106 -22.55508649 72.46644608 -15.14453125 72.25390625 C-8.71518366 71.49269023 -3.04066757 69.00668448 2 65 C2 64.34 2 63.68 2 63 C2.66 63 3.32 63 4 63 C4 62.34 4 61.68 4 61 C4.66 61 5.32 61 6 61 C6 60.34 6 59.68 6 59 C6.66 59 7.32 59 8 59 C9.77671697 57.32040162 9.77671697 57.32040162 11.5625 55.1875 C12.18253906 54.47980469 12.80257812 53.77210938 13.44140625 53.04296875 C15.18424754 50.98726532 15.18424754 50.98726532 16 48 C16.66 48 17.32 48 18 48 C18.495 46.515 18.495 46.515 19 45 C16.76020432 41.76223489 16.76020432 41.76223489 14 39 C13.34 39 12.68 39 12 39 C12 38.34 12 37.68 12 37 C11.34 37 10.68 37 10 37 C10 36.34 10 35.68 10 35 C9.34 35 8.68 35 8 35 C8 34.34 8 33.68 8 33 C-0.52496965 24.87584266 -7.13016988 20.42558875 -19.04296875 20.6953125 C-23.13500414 21.11694891 -26.27614085 22.28129577 -30 24 Z M58.875 35.625 C58.01390625 36.48351562 57.1528125 37.34203125 56.265625 38.2265625 C51.54885084 42.38531302 51.54885084 42.38531302 50 48 C50.66 48 51.32 48 52 48 C52 48.66 52 49.32 52 50 C52.66 50 53.32 50 54 50 C54 50.66 54 51.32 54 52 C54.66 52 55.32 52 56 52 C56.35384766 52.83724609 56.35384766 52.83724609 56.71484375 53.69140625 C61.25801653 61.85254641 70.05643126 68.92229121 79.0234375 71.60546875 C85.4856743 72.89536187 91.25125062 72.15289937 97 69 C104.10681125 63.98113877 108.24626175 58.58505976 110.4375 50.1875 C111.67894847 42.81709871 109.46340744 36.72445205 105.25 30.6875 C101.46437143 26.03550868 97.0498675 22.11503032 91 21 C89.13065875 20.80813213 87.25305756 20.68941886 85.375 20.625 C84.41335938 20.57601562 83.45171875 20.52703125 82.4609375 20.4765625 C72.3673481 22.00313246 65.72336349 28.54048604 58.875 35.625 Z " fill="#BF0C8B" transform="translate(303,228)"/>
<path d="M0 0 C0 0.66 0 1.32 0 2 C0.86560547 2.13325684 1.73121094 2.26651367 2.62304688 2.40380859 C5.81846852 2.96795114 8.89197912 3.72434696 12.03125 4.5390625 C18.92128753 6.14426137 25.44781821 6.44803756 32.5 6.375 C34.18029297 6.39240234 34.18029297 6.39240234 35.89453125 6.41015625 C48.65051808 6.36601789 58.81704019 3.59445681 69.80859375 -2.671875 C74.80693634 -4.75196861 78.69125451 -3.24485491 83.625 -1.5625 C84.72714844 -1.19318359 84.72714844 -1.19318359 85.8515625 -0.81640625 C87.9846106 -0.00584797 89.97887982 0.94371321 92 2 C92 2.66 92 3.32 92 4 C92.680625 4.185625 93.36125 4.37125 94.0625 4.5625 C103.48408865 9.17306466 108.8081819 19.28329894 112.3125 28.75 C114.24401622 34.94694789 117.03748452 44.92503097 114 51 C92.63432866 51.02332696 71.26865942 51.04097817 49.90297794 51.05181217 C39.98324725 51.05697556 30.06352445 51.06401907 20.14379883 51.07543945 C11.50103021 51.08538498 2.85826732 51.09185311 -5.78450686 51.09408849 C-10.36372463 51.09539583 -14.94292605 51.09848308 -19.5221386 51.10573006 C-23.82711706 51.11248821 -28.13207233 51.11461738 -32.43705559 51.11310768 C-34.02178066 51.1133841 -35.60650646 51.11539044 -37.19122696 51.11920547 C-39.34540411 51.12413953 -41.4994923 51.12299937 -43.65367126 51.12025452 C-44.86214187 51.12117631 -46.07061247 51.1220981 -47.31570339 51.12304783 C-50 51 -50 51 -51 50 C-52.03380896 36.81893576 -47.76362124 23.54251668 -39.78515625 13.1015625 C-36.13427364 8.86143595 -33.41366664 5.76966959 -28 4 C-28 3.34 -28 2.68 -28 2 C-25.89615302 1.18667257 -23.79191143 0.37436583 -21.6875 -0.4375 C-20.51574219 -0.88996094 -19.34398437 -1.34242188 -18.13671875 -1.80859375 C-10.75060424 -4.61402952 -6.96713781 -3.14204254 0 0 Z " fill="#F5F5F5" transform="translate(97,315)"/>
<path d="M0 0 C1.99616554 1.99616554 1.40983427 5.81701963 1.5625 8.5625 C1.60568359 9.27341797 1.64886719 9.98433594 1.69335938 10.71679688 C1.79971777 12.47761912 1.90038846 14.2387832 2 16 C2.845625 16.31453125 3.69125 16.6290625 4.5625 16.953125 C10.89929876 19.34382635 17.0134578 21.83065413 23 25 C23.40992188 24.09507812 23.40992188 24.09507812 23.828125 23.171875 C25.61595059 19.85843824 27.92845267 18.12645584 31 16 C34.88057757 15.44111247 36.46259619 15.62257478 39.703125 17.8984375 C40.54359375 18.71570313 41.3840625 19.53296875 42.25 20.375 C43.52617187 21.59316406 43.52617187 21.59316406 44.828125 22.8359375 C46.21994955 24.22275549 47.61067647 25.61067647 49 27 C48.69903201 31.13830989 48.32101984 33.51847024 46 37 C45.34 37 44.68 37 44 37 C44 37.66 44 38.32 44 39 C43.34 39 42.68 39 42 39 C42 39.66 42 40.32 42 41 C41.34 41 40.68 41 40 41 C40.4050716 43.83550122 40.89252817 45.82565681 42.40625 48.28125 C44.13520876 51.23065023 45.15070532 54.05910981 46.1875 57.3125 C46.53167969 58.38113281 46.87585938 59.44976562 47.23046875 60.55078125 C47.48441406 61.35902344 47.73835938 62.16726562 48 63 C48.91523438 63.03738281 49.83046875 63.07476562 50.7734375 63.11328125 C51.96195312 63.17902344 53.15046875 63.24476563 54.375 63.3125 C55.55835938 63.37050781 56.74171875 63.42851562 57.9609375 63.48828125 C58.96382812 63.65714844 59.96671875 63.82601562 61 64 C63.71036655 68.06554982 63.3674954 71.22707543 63.375 76 C63.39949219 76.81984375 63.42398438 77.6396875 63.44921875 78.484375 C63.4782688 84.41058423 63.4782688 84.41058423 61.3359375 87.05078125 C58.4760313 88.21291705 56.32980842 88.29749316 53.25 88.1875 C51.77273438 88.14689453 51.77273438 88.14689453 50.265625 88.10546875 C49.51796875 88.07066406 48.7703125 88.03585938 48 88 C47.34 89.65 46.68 91.3 46 93 C42.26885845 91.75628615 41.61489669 90.39951282 39.4375 87.1875 C38.83808594 86.31480469 38.23867188 85.44210938 37.62109375 84.54296875 C36.25644737 82.40228251 35.07554892 80.29557457 34 78 C33.34 78 32.68 78 32 78 C30.20877096 74.07635544 28.76312693 70.28729276 27.625 66.125 C26.35042102 61.70106451 24.52465788 57.96063729 22.18359375 54.0078125 C21 52 21 52 20.09765625 49.8671875 C18.71754913 47.51953197 17.456899 47.09093649 15 46 C13.8184243 45.06011024 12.65237339 44.10047397 11.5 43.125 C2.75493432 36.52983032 -7.27496516 34.90450464 -18 36 C-27.91421605 37.74110325 -36.80291905 42.56671104 -42.84375 50.6796875 C-43.2253125 51.11539063 -43.606875 51.55109375 -44 52 C-44.66 52 -45.32 52 -46 52 C-46 52.99 -46 53.98 -46 55 C-46.66 55 -47.32 55 -48 55 C-48.103125 55.639375 -48.20625 56.27875 -48.3125 56.9375 C-48.87863188 59.45936019 -49.59332353 61.59841306 -50.5 64 C-52.53238596 69.85922002 -52.72421219 75.84707895 -53 82 C-54.65 81.34 -56.3 80.68 -58 80 C-58 79.34 -58 78.68 -58 78 C-58.66 78 -59.32 78 -60 78 C-60 77.34 -60 76.68 -60 76 C-60.87398438 75.60167969 -60.87398438 75.60167969 -61.765625 75.1953125 C-65.57545365 73.15718738 -68.45734083 70.48924697 -71 67 C-72.8026229 58.13710408 -67.58881135 49.36093785 -63 42 C-63.928125 41.566875 -63.928125 41.566875 -64.875 41.125 C-67 40 -67 40 -69 38 C-69.38832473 34.99795109 -69.23560816 33.42453924 -67.7578125 30.76171875 C-67.21898437 30.07722656 -66.68015625 29.39273438 -66.125 28.6875 C-65.59132813 27.99011719 -65.05765625 27.29273438 -64.5078125 26.57421875 C-64.01023437 26.05472656 -63.51265625 25.53523438 -63 25 C-62.34 25 -61.68 25 -61 25 C-61 24.34 -61 23.68 -61 23 C-57.02631579 19.02631579 -57.02631579 19.02631579 -53.5625 18.9375 C-50.06170719 20.38904824 -47.80563437 22.45535487 -45 25 C-44.55011719 24.68546875 -44.10023438 24.3709375 -43.63671875 24.046875 C-38.02538691 20.31348388 -32.38148717 18.15375192 -26 16 C-25.34 10.72 -24.68 5.44 -24 0 C-15.3724256 -2.46502126 -8.46796781 -3.06288197 0 0 Z " fill="#BF0C8B" transform="translate(395,154)"/>
<path d="M0 0 C1.1446875 -0.01675781 2.289375 -0.03351563 3.46875 -0.05078125 C6.5 0.3125 6.5 0.3125 8.3828125 1.421875 C10.05170493 4.2461545 9.89679951 6.62323981 9.875 9.875 C9.88273437 11.03128906 9.89046875 12.18757812 9.8984375 13.37890625 C9.76695312 14.34699219 9.63546875 15.31507813 9.5 16.3125 C5.79758718 18.78077522 3.8408889 18.55009026 -0.5625 18.5 C-2.43615234 18.49033203 -2.43615234 18.49033203 -4.34765625 18.48046875 C-7.5 18.3125 -7.5 18.3125 -9.5 17.3125 C-9.58076963 14.85351345 -9.64037143 12.39716258 -9.6875 9.9375 C-9.71263672 9.23882812 -9.73777344 8.54015625 -9.76367188 7.8203125 C-9.79296875 5.7890625 -9.79296875 5.7890625 -9.5 2.3125 C-5.94223788 -0.05934142 -4.21979393 0.01425606 0 0 Z " fill="#DCDCDD" transform="translate(154.5,221.6875)"/>
<path d="M0 0 C1.73443359 0.00966797 1.73443359 0.00966797 3.50390625 0.01953125 C6.4375 0.1875 6.4375 0.1875 8.4375 1.1875 C8.4375 6.4675 8.4375 11.7475 8.4375 17.1875 C5.46708551 18.67270725 2.73985553 18.3580822 -0.5625 18.375 C-2.4496875 18.39626953 -2.4496875 18.39626953 -4.375 18.41796875 C-7.5625 18.1875 -7.5625 18.1875 -9.5625 16.1875 C-9.86328125 13 -9.86328125 13 -9.875 9.1875 C-9.89175781 7.929375 -9.90851563 6.67125 -9.92578125 5.375 C-9.80589844 4.323125 -9.68601562 3.27125 -9.5625 2.1875 C-5.96639031 -0.20990646 -4.26157673 -0.05237692 0 0 Z " fill="#E6E6E6" transform="translate(103.5625,221.8125)"/>
<path d="M0 0 C0.495 0.99 0.495 0.99 1 2 C0.0625 4.625 0.0625 4.625 -1 7 C-0.01 7.33 0.98 7.66 2 8 C-1.153368 8.70074844 -3.72724974 9 -7 9 C-7 10.65 -7 12.3 -7 14 C-7.66 14 -8.32 14 -9 14 C-9 14.99 -9 15.98 -9 17 C-10.65 16.67 -12.3 16.34 -14 16 C-14 18.31 -14 20.62 -14 23 C-14.66 23.33 -15.32 23.66 -16 24 C-16.33 23.34 -16.66 22.68 -17 22 C-20.94727588 21.82057837 -23.5980513 21.90649311 -27 24 C-27 23.34 -27 22.68 -27 22 C-29.31 22 -31.62 22 -34 22 C-34 21.67 -34 21.34 -34 21 C-33.05898438 20.82984375 -32.11796875 20.6596875 -31.1484375 20.484375 C-21.909188 18.72263739 -21.909188 18.72263739 -14 14 C-13.34 14 -12.68 14 -12 14 C-12 13.34 -12 12.68 -12 12 C-11.34 12 -10.68 12 -10 12 C-10 11.34 -10 10.68 -10 10 C-9.34 10 -8.68 10 -8 10 C-8 9.34 -8 8.68 -8 8 C-7.34 8 -6.68 8 -6 8 C-5.7525 7.4225 -5.505 6.845 -5.25 6.25 C-3.83316683 3.6997003 -2.12372463 1.98214299 0 0 Z " fill="#B61087" transform="translate(317,279)"/>
<path d="M0 0 C1.2380014 3.57644848 0.74926071 6.33694766 0 10 C-0.66 10 -1.32 10 -2 10 C-1.9193749 13.45930693 -1.80651536 16.91681775 -1.6875 20.375 C-1.66494141 21.35984375 -1.64238281 22.3446875 -1.61914062 23.359375 C-1.58369141 24.30039062 -1.54824219 25.24140625 -1.51171875 26.2109375 C-1.48553467 27.08024902 -1.45935059 27.94956055 -1.43237305 28.84521484 C-1.18654782 31.38600027 -1.18654782 31.38600027 2 33 C1.54177532 36.46941546 1.10868317 39.67395049 0 43 C-6.25103364 29.92965693 -6.01104118 17.7442558 -2 4 C-1.37530495 2.64649406 -0.72529208 1.3023723 0 0 Z " fill="#8C1366" transform="translate(243,252)"/>
<path d="M0 0 C-0.33 0.99 -0.66 1.98 -1 3 C-1.66 3 -2.32 3 -3 3 C-3.103125 3.61875 -3.20625 4.2375 -3.3125 4.875 C-4 7 -4 7 -7 9 C-7.99 9 -8.98 9 -10 9 C-9.34 9.33 -8.68 9.66 -8 10 C-8.33 10.99 -8.66 11.98 -9 13 C-10.98 13 -12.96 13 -15 13 C-15.33 14.32 -15.66 15.64 -16 17 C-17.32 16.67 -18.64 16.34 -20 16 C-18.38405168 13.95880212 -16.7143618 11.95927063 -15 10 C-14.34 10 -13.68 10 -13 10 C-13 9.34 -13 8.68 -13 8 C-12.34 8 -11.68 8 -11 8 C-11 7.34 -11 6.68 -11 6 C-9.35546875 4.4921875 -9.35546875 4.4921875 -7.1875 2.875 C-6.47980469 2.33617187 -5.77210938 1.79734375 -5.04296875 1.2421875 C-3 0 -3 0 0 0 Z " fill="#970F6D" transform="translate(367,231)"/>
<path d="M0 0 C1 1 1 1 1.09765625 4.37890625 C1.09098369 5.77347077 1.07902532 7.16801743 1.0625 8.5625 C1.05798828 9.27341797 1.05347656 9.98433594 1.04882812 10.71679688 C1.03700864 12.47790013 1.01907263 14.23896036 1 16 C0.34 16 -0.32 16 -1 16 C-1.33 11.05 -1.66 6.1 -2 1 C-3.98 1 -5.96 1 -8 1 C-8 0.34 -8 -0.32 -8 -1 C-12.29 -0.34 -16.58 0.32 -21 1 C-21.33 2.65 -21.66 4.3 -22 6 C-24 3 -24 3 -23.625 0.8125 C-23.41875 0.214375 -23.2125 -0.38375 -23 -1 C-15.13973712 -2.65479218 -7.57557103 -2.74010016 0 0 Z " fill="#871564" transform="translate(395,154)"/>
<path d="M0 0 C0.93423645 3.01031744 1.04449911 3.86650268 0 7 C-0.22451458 9.22574335 -0.40782878 11.45581519 -0.5625 13.6875 C-0.64628906 14.86699219 -0.73007812 16.04648438 -0.81640625 17.26171875 C-0.87699219 18.16535156 -0.93757813 19.06898438 -1 20 C-3.475 19.01 -3.475 19.01 -6 18 C-6 17.34 -6 16.68 -6 16 C-6.66 16 -7.32 16 -8 16 C-8 15.34 -8 14.68 -8 14 C-8.639375 13.71125 -9.27875 13.4225 -9.9375 13.125 C-12 12 -12 12 -13 10 C-10.03 10.495 -10.03 10.495 -7 11 C-7 12.32 -7 13.64 -7 15 C-6.01 15 -5.02 15 -4 15 C-4.12375 13.7934375 -4.12375 13.7934375 -4.25 12.5625 C-3.91706018 7.81810753 -2.09835476 4.21544483 0 0 Z " fill="#771055" transform="translate(343,216)"/>
<path d="M0 0 C0.33 0.66 0.66 1.32 1 2 C2.65 2 4.3 2 6 2 C6 1.34 6 0.68 6 0 C8.54232342 -0.08152344 11.08199202 -0.14073716 13.625 -0.1875 C14.33785156 -0.21263672 15.05070312 -0.23777344 15.78515625 -0.26367188 C20.62276416 -0.33024446 23.74738338 0.44440547 28 3 C24.98968256 3.93423645 24.13349732 4.04449911 21 3 C12.77466345 2.40011571 5.7159761 3.12512859 -2 6 C-2.99 6.33 -3.98 6.66 -5 7 C-5 6.01 -5 5.02 -5 4 C-3.68 4 -2.36 4 -1 4 C-0.67 2.68 -0.34 1.36 0 0 Z " fill="#90116A" transform="translate(369,187)"/>
<path d="M0 0 C1.98 0 3.96 0 6 0 C6.33 0.99 6.66 1.98 7 3 C8.65 2.67 10.3 2.34 12 2 C12 2.66 12 3.32 12 4 C11.34 4 10.68 4 10 4 C10.99 5.485 10.99 5.485 12 7 C12.66 6.67 13.32 6.34 14 6 C14.66 6.33 15.32 6.66 16 7 C15.25 12.75 15.25 12.75 13 15 C12.64808594 14.40832031 12.29617188 13.81664062 11.93359375 13.20703125 C8.5200408 7.74356399 5.41440255 4.46521763 0 1 C0 0.67 0 0.34 0 0 Z " fill="#A80F7A" transform="translate(398,250)"/>
<path d="M0 0 C4.08718695 -0.24042276 7.17679443 0.57741188 11 2 C11 2.66 11 3.32 11 4 C12.299375 4.144375 13.59875 4.28875 14.9375 4.4375 C18.875 4.875 18.875 4.875 20 6 C22.52596259 6.23653523 25.03107207 6.42173692 27.5625 6.5625 C28.62887695 6.62727539 28.62887695 6.62727539 29.71679688 6.69335938 C31.47761912 6.79971777 33.2387832 6.90038846 35 7 C35 7.33 35 7.66 35 8 C22.16961423 8.51321543 11.13553669 8.29707521 0 1 C0 0.67 0 0.34 0 0 Z " fill="#8E0F66" transform="translate(362,314)"/>
<path d="M0 0 C0.99 0.33 1.98 0.66 3 1 C2.83757812 1.51691406 2.67515625 2.03382813 2.5078125 2.56640625 C1.8486782 5.72518064 1.86811514 8.71194441 1.875 11.9375 C1.87242187 13.14277344 1.86984375 14.34804688 1.8671875 15.58984375 C1.98178199 18.53222592 2.31737461 21.14489223 3 24 C0 23 0 23 -1.1875 20.6875 C-2.34159474 15.4496854 -2.15556749 10.34115048 -2 5 C-1.34 5 -0.68 5 0 5 C0 3.35 0 1.7 0 0 Z " fill="#8D1065" transform="translate(261,262)"/>
<path d="M0 0 C0.66 0.33 1.32 0.66 2 1 C1.01 2.485 1.01 2.485 0 4 C-0.99 4 -1.98 4 -3 4 C-3.33 4.99 -3.66 5.98 -4 7 C-5.1446875 7.1546875 -5.1446875 7.1546875 -6.3125 7.3125 C-9.17059424 8.04364039 -10.15742885 8.76951913 -12 11 C-15.0916909 8.47043472 -15.90931332 5.77545388 -17 2 C-14.03 3.98 -14.03 3.98 -11 6 C-10.45730469 5.65066406 -9.91460937 5.30132812 -9.35546875 4.94140625 C-8.28232422 4.25884766 -8.28232422 4.25884766 -7.1875 3.5625 C-6.47980469 3.11003906 -5.77210938 2.65757812 -5.04296875 2.19140625 C-3 1 -3 1 0 0 Z " fill="#A81276" transform="translate(361,173)"/>
<path d="M0 0 C3 1 3 1 4 3 C4.08308638 4.37548156 4.10736016 5.75485796 4.09765625 7.1328125 C4.09282227 8.34130859 4.09282227 8.34130859 4.08789062 9.57421875 C4.07951172 10.41597656 4.07113281 11.25773438 4.0625 12.125 C4.05798828 12.97449219 4.05347656 13.82398438 4.04882812 14.69921875 C4.03702874 16.79950909 4.01909306 18.8997633 4 21 C2.02 21.99 2.02 21.99 0 23 C-0.66 22.34 -1.32 21.68 -2 21 C-0.68 21 0.64 21 2 21 C1.34 14.07 0.68 7.14 0 0 Z " fill="#8D1363" transform="translate(454,218)"/>
<path d="M0 0 C1.32 0.33 2.64 0.66 4 1 C3.67 4.3 3.34 7.6 3 11 C-1.875 12 -1.875 12 -3 12 C-3.2954439 6.97745369 -2.98514628 4.10457614 0 0 Z " fill="#C00F8F" transform="translate(331,198)"/>
<path d="M0 0 C0 0.66 0 1.32 0 2 C-4.95 2 -9.9 2 -15 2 C-15.33 2.99 -15.66 3.98 -16 5 C-17.8253125 4.9690625 -17.8253125 4.9690625 -19.6875 4.9375 C-22.91977322 4.93175884 -25.84934741 5.21233685 -29 6 C-27.56698226 3.13396452 -25.9230339 2.95991811 -22.9375 1.875 C-15.28465985 -0.61748111 -7.93850857 -0.36267298 0 0 Z " fill="#861566" transform="translate(396,225)"/>
<path d="M0 0 C5.28 0 10.56 0 16 0 C16 0.66 16 1.32 16 2 C16.66 2.33 17.32 2.66 18 3 C17.01 2.97679687 16.02 2.95359375 15 2.9296875 C8.06140739 2.81730741 1.66829915 2.8225962 -5 5 C-4.67 3.68 -4.34 2.36 -4 1 C-2.02 1.495 -2.02 1.495 0 2 C0 1.34 0 0.68 0 0 Z " fill="#891167" transform="translate(278,247)"/>
<path d="M0 0 C0.33 0.66 0.66 1.32 1 2 C0.0625 4.625 0.0625 4.625 -1 7 C-0.01 7.33 0.98 7.66 2 8 C-1.153368 8.70074844 -3.72724974 9 -7 9 C-7 10.65 -7 12.3 -7 14 C-8.65 14 -10.3 14 -12 14 C-12 13.34 -12 12.68 -12 12 C-11.34 12 -10.68 12 -10 12 C-10 11.34 -10 10.68 -10 10 C-9.34 10 -8.68 10 -8 10 C-8 9.34 -8 8.68 -8 8 C-7.34 8 -6.68 8 -6 8 C-5.7525 7.4225 -5.505 6.845 -5.25 6.25 C-3.83316683 3.6997003 -2.12372463 1.98214299 0 0 Z " fill="#901166" transform="translate(317,279)"/>
<path d="M0 0 C0 0.33 0 0.66 0 1 C-0.99902344 1.04898438 -1.99804688 1.09796875 -3.02734375 1.1484375 C-4.31769531 1.22320312 -5.60804688 1.29796875 -6.9375 1.375 C-8.22527344 1.44460937 -9.51304687 1.51421875 -10.83984375 1.5859375 C-11.88269531 1.72257813 -12.92554688 1.85921875 -14 2 C-14.33 2.66 -14.66 3.32 -15 4 C-17.94140625 4.4140625 -17.94140625 4.4140625 -21.5625 4.625 C-22.76003906 4.69976562 -23.95757812 4.77453125 -25.19140625 4.8515625 C-26.58166016 4.92503906 -26.58166016 4.92503906 -28 5 C-20.0409628 -1.44134939 -9.6882168 -0.22976008 0 0 Z " fill="#7D0F59" transform="translate(294,225)"/>
<path d="M0 0 C1 2 1 2 0.5 4.5 C-1 7 -1 7 -4.5 8.375 C-8 9 -8 9 -10 8 C-10.33 8.66 -10.66 9.32 -11 10 C-11.66 8.02 -12.32 6.04 -13 4 C-7.25 5.875 -7.25 5.875 -5 7 C-4.731875 6.401875 -4.46375 5.80375 -4.1875 5.1875 C-3.01506533 3.02775192 -1.80630718 1.64209744 0 0 Z " fill="#921168" transform="translate(423,172)"/>
<path d="M0 0 C2.97 0 5.94 0 9 0 C8 2 8 2 5.234375 3.0703125 C3.50960938 3.59238281 3.50960938 3.59238281 1.75 4.125 C0.61046875 4.47820312 -0.5290625 4.83140625 -1.703125 5.1953125 C-4.6411939 5.9124241 -6.99990761 6.16917814 -10 6 C-9.67 5.34 -9.34 4.68 -9 4 C-6.36 4 -3.72 4 -1 4 C-0.67 2.68 -0.34 1.36 0 0 Z " fill="#93106A" transform="translate(301,316)"/>
<path d="M0 0 C2.9375 0.8125 2.9375 0.8125 6 2 C6.33 2.99 6.66 3.98 7 5 C8.28817344 6.37701298 9.62804426 7.70644173 11 9 C12.33333333 10.33333333 13.66666667 11.66666667 15 13 C14.67 13.99 14.34 14.98 14 16 C11.66266774 13.52457687 9.33081816 11.0440564 7 8.5625 C6.33226562 7.85544922 5.66453125 7.14839844 4.9765625 6.41992188 C4.34492188 5.74638672 3.71328125 5.07285156 3.0625 4.37890625 C2.47597656 3.7557251 1.88945312 3.13254395 1.28515625 2.49047852 C0 1 0 1 0 0 Z " fill="#800E5F" transform="translate(337,290)"/>
<path d="M0 0 C1.15084889 2.82359437 1.06262458 3.84608465 -0.109375 6.7265625 C-0.65078125 7.68304688 -1.1921875 8.63953125 -1.75 9.625 C-2.28109375 10.58664062 -2.8121875 11.54828125 -3.359375 12.5390625 C-5 15 -5 15 -8 17 C-8 15.35 -8 13.7 -8 12 C-6.68 11.67 -5.36 11.34 -4 11 C-3.896875 9.741875 -3.79375 8.48375 -3.6875 7.1875 C-3.35141192 4.39500343 -3.19974124 3.25566879 -1.4375 1 C-0.963125 0.67 -0.48875 0.34 0 0 Z " fill="#95146E" transform="translate(432,288)"/>
<path d="M0 0 C1.65 0.33 3.3 0.66 5 1 C4.04663979 2.31611677 3.08714226 3.62778961 2.125 4.9375 C1.59132813 5.66839844 1.05765625 6.39929688 0.5078125 7.15234375 C-1 9 -1 9 -3 10 C-3 9.01 -3 8.02 -3 7 C-4.32 6.67 -5.64 6.34 -7 6 C-6.67 5.34 -6.34 4.68 -6 4 C-4.02 4.495 -4.02 4.495 -2 5 C-1.34 3.35 -0.68 1.7 0 0 Z " fill="#A30F77" transform="translate(332,290)"/>
<path d="M0 0 C0.96706319 3.00864103 1.27677226 5.05360248 0 8 C-1.3153341 8.70151152 -2.65117592 9.36525925 -4 10 C-5.73425773 12.03317007 -5.73425773 12.03317007 -7 14 C-8.32 13.67 -9.64 13.34 -11 13 C-10.54109375 12.64808594 -10.0821875 12.29617188 -9.609375 11.93359375 C-5.16127195 8.35455285 -2.55263762 5.10527523 0 0 Z " fill="#861061" transform="translate(411,283)"/>
<path d="M0 0 C2.08268593 -0.08126087 4.16628658 -0.13930839 6.25 -0.1875 C7.99023438 -0.23970703 7.99023438 -0.23970703 9.765625 -0.29296875 C13 0 13 0 17 3 C11.06 3 5.12 3 -1 3 C-0.67 2.01 -0.34 1.02 0 0 Z " fill="#850E5F" transform="translate(380,247)"/>
<path d="M0 0 C-0.33 0.99 -0.66 1.98 -1 3 C-2.98 3 -4.96 3 -7 3 C-7.33 4.32 -7.66 5.64 -8 7 C-9.32 6.67 -10.64 6.34 -12 6 C-5.84787736 -1.81485849 -5.84787736 -1.81485849 0 0 Z " fill="#BD1187" transform="translate(359,241)"/>
<path d="M0 0 C0.33 0.99 0.66 1.98 1 3 C-0.33181733 5.66363467 -2.05124617 7.75598043 -4 10 C-4.66 10 -5.32 10 -6 10 C-6 10.99 -6 11.98 -6 13 C-6.66 13 -7.32 13 -8 13 C-7.38768269 9.59398498 -6.1179601 7.52613637 -4 4.8125 C-3.195625 3.77029297 -3.195625 3.77029297 -2.375 2.70703125 C-1 1 -1 1 0 0 Z " fill="#840E64" transform="translate(252,239)"/>
<path d="M0 0 C0.66 0 1.32 0 2 0 C2 0.66 2 1.32 2 2 C3.32 2.33 4.64 2.66 6 3 C6.33 4.65 6.66 6.3 7 8 C7.66 8 8.32 8 9 8 C8.67 8.99 8.34 9.98 8 11 C2.19794344 5.35475578 2.19794344 5.35475578 0 2 C0 1.34 0 0.68 0 0 Z " fill="#8A1067" transform="translate(244,296)"/>
<path d="M0 0 C3.96 0 7.92 0 12 0 C12 0.99 12 1.98 12 3 C7.71 3 3.42 3 -1 3 C-0.67 2.01 -0.34 1.02 0 0 Z " fill="#C90893" transform="translate(441,219)"/>
<path d="M0 0 C-2.88087546 2.40072955 -5.56404834 4.47291037 -9 6 C-9.33 4.35 -9.66 2.7 -10 1 C-6.42181037 -1.33958553 -4.07775191 -0.9267618 0 0 Z " fill="#9E0E75" transform="translate(379,250)"/>
<path d="M0 0 C4.2742558 1.5830577 6.26531794 4.50568404 9 8 C8.67 8.66 8.34 9.32 8 10 C6.02 9.34 4.04 8.68 2 8 C2.33 6.68 2.66 5.36 3 4 C1.68 3.34 0.36 2.68 -1 2 C-0.67 1.34 -0.34 0.68 0 0 Z " fill="#91106A" transform="translate(418,236)"/>
<path d="M0 0 C0.66 0.33 1.32 0.66 2 1 C1.649375 1.598125 1.29875 2.19625 0.9375 2.8125 C-0.33304698 5.10813214 -0.33304698 5.10813214 1 8 C-1.64 7.34 -4.28 6.68 -7 6 C-4.74259377 3.66475218 -2.7194239 1.81294927 0 0 Z " fill="#9C1170" transform="translate(262,231)"/>
<path d="M0 0 C-1.44781793 3.44428265 -3.27694609 5.36130962 -6.125 7.75 C-7.21167969 8.67039063 -7.21167969 8.67039063 -8.3203125 9.609375 C-8.87460938 10.06828125 -9.42890625 10.5271875 -10 11 C-10.66 10.67 -11.32 10.34 -12 10 C-4.04545455 0 -4.04545455 0 0 0 Z " fill="#939393" transform="translate(85,149)"/>
<path d="M0 0 C2 1 2 1 3.0703125 3.94140625 C3.41835938 5.13636719 3.76640625 6.33132812 4.125 7.5625 C4.47820312 8.76003906 4.83140625 9.95757812 5.1953125 11.19140625 C5.46085937 12.11824219 5.72640625 13.04507813 6 14 C5.01 14.495 5.01 14.495 4 15 C3.34 14.67 2.68 14.34 2 14 C1.53193355 11.66255706 1.17330206 9.30260921 0.875 6.9375 C0.70742188 5.64714844 0.53984375 4.35679687 0.3671875 3.02734375 C0.24601562 2.02832031 0.12484375 1.02929688 0 0 Z " fill="#83105D" transform="translate(437,204)"/>
<path d="M0 0 C3.55555556 3.55555556 3.55555556 3.55555556 4 7 C3.67 7.66 3.34 8.32 3 9 C1.68 9 0.36 9 -1 9 C-0.67 6.03 -0.34 3.06 0 0 Z " fill="#A31073" transform="translate(427,246)"/>
<path d="M0 0 C0 0.33 0 0.66 0 1 C-4.62 1.66 -9.24 2.32 -14 3 C-14.33 4.65 -14.66 6.3 -15 8 C-17 5 -17 5 -16.625 2.8125 C-16.41875 2.214375 -16.2125 1.61625 -16 1 C-10.63904667 -0.12862175 -5.44693314 -0.09688221 0 0 Z " fill="#760F55" transform="translate(388,152)"/>
<path d="M0 0 C-0.33 0.99 -0.66 1.98 -1 3 C-2.8253125 2.9690625 -2.8253125 2.9690625 -4.6875 2.9375 C-7.91977322 2.93175884 -10.84934741 3.21233685 -14 4 C-13 2 -13 2 -10.8203125 1.11328125 C-9.93085938 0.84902344 -9.04140625 0.58476562 -8.125 0.3125 C-7.24070312 0.04050781 -6.35640625 -0.23148438 -5.4453125 -0.51171875 C-3 -1 -3 -1 0 0 Z " fill="#93116D" transform="translate(381,227)"/>
<path d="M0 0 C5.75 0.875 5.75 0.875 8 2 C9 4 9 4 10 6 C10.66 6.33 11.32 6.66 12 7 C11.67 7.99 11.34 8.98 11 10 C11 9.34 11 8.68 11 8 C10.484375 7.773125 9.96875 7.54625 9.4375 7.3125 C6.09033884 5.51018245 2.96109508 3.38717496 0 1 C0 0.67 0 0.34 0 0 Z " fill="#7D0D5B" transform="translate(403,194)"/>
<path d="M0 0 C1.32 0.33 2.64 0.66 4 1 C4 1.66 4 2.32 4 3 C3.34 3 2.68 3 2 3 C2 3.66 2 4.32 2 5 C1.34 5 0.68 5 0 5 C0 5.66 0 6.32 0 7 C-0.66 7 -1.32 7 -2 7 C-2.33 7.66 -2.66 8.32 -3 9 C-3.33 8.01 -3.66 7.02 -4 6 C-3.01 6 -2.02 6 -1 6 C-1.33 5.01 -1.66 4.02 -2 3 C-1.34 2.01 -0.68 1.02 0 0 Z " fill="#960F6D" transform="translate(437,188)"/>
<path d="M0 0 C0.33 0 0.66 0 1 0 C1.07347656 1.17369141 1.07347656 1.17369141 1.1484375 2.37109375 C1.22320312 3.38300781 1.29796875 4.39492187 1.375 5.4375 C1.44460938 6.44683594 1.51421875 7.45617187 1.5859375 8.49609375 C1.72257812 9.32238281 1.85921875 10.14867187 2 11 C2.66 11.33 3.32 11.66 4 12 C3.01 12 2.02 12 1 12 C-1 10 -1 10 -1.23046875 8.125 C-1.21628906 7.42375 -1.20210938 6.7225 -1.1875 6 C-1.18105469 5.29875 -1.17460937 4.5975 -1.16796875 3.875 C-1 2 -1 2 0 0 Z " fill="#791059" transform="translate(325,211)"/>
<path d="M0 0 C2.64 0.66 5.28 1.32 8 2 C5.51047079 4.66735273 3.36591866 6.55746343 0 8 C-0.33 7.01 -0.66 6.02 -1 5 C-0.01 5 0.98 5 2 5 C1.34 3.35 0.68 1.7 0 0 Z " fill="#960D6A" transform="translate(355,192)"/>
<path d="M0 0 C0 0.66 0 1.32 0 2 C-3.46153846 5 -3.46153846 5 -6 5 C-6 4.34 -6 3.68 -6 3 C-8.31 3 -10.62 3 -13 3 C-13 2.67 -13 2.34 -13 2 C-11.20873548 1.66451233 -9.41697413 1.33167645 -7.625 1 C-6.62726563 0.814375 -5.62953125 0.62875 -4.6015625 0.4375 C-2 0 -2 0 0 0 Z " fill="#920E6F" transform="translate(296,298)"/>
<path d="M0 0 C1.43838552 0.79005662 2.87567415 1.58211045 4.3125 2.375 C5.11300781 2.81585938 5.91351563 3.25671875 6.73828125 3.7109375 C8.53527943 4.73513335 10.27900708 5.85267138 12 7 C8.7 6.67 5.4 6.34 2 6 C1.34 4.02 0.68 2.04 0 0 Z " fill="#830E61" transform="translate(270,293)"/>
<path d="M0 0 C1.37095624 3.69037278 0.60010967 5.70883835 -0.9375 9.25 C-1.31777344 10.14203125 -1.69804687 11.0340625 -2.08984375 11.953125 C-2.39019531 12.62859375 -2.69054687 13.3040625 -3 14 C-3.33 14 -3.66 14 -4 14 C-3.46148032 8.72250715 -2.22656164 4.74354436 0 0 Z " fill="#9A1170" transform="translate(343,216)"/>
<path d="M0 0 C3.3 0.99 6.6 1.98 10 3 C9.01 3.66 8.02 4.32 7 5 C3.3125 4.125 3.3125 4.125 0 3 C0 2.01 0 1.02 0 0 Z " fill="#96126C" transform="translate(396,170)"/>
<path d="M0 0 C1.32 0 2.64 0 4 0 C4 0.66 4 1.32 4 2 C7.465 1.505 7.465 1.505 11 1 C11 2.32 11 3.64 11 5 C6.87248551 4.39301257 3.6678852 2.96189209 0 1 C0 0.67 0 0.34 0 0 Z " fill="#7C0D59" transform="translate(261,315)"/>
<path d="M0 0 C0.66 0 1.32 0 2 0 C2.33 0.99 2.66 1.98 3 3 C0.03 5.475 0.03 5.475 -3 8 C-3.33 6.68 -3.66 5.36 -4 4 C-2.68 3.67 -1.36 3.34 0 3 C0 2.01 0 1.02 0 0 Z " fill="#9C0F6D" transform="translate(326,298)"/>
<path d="M0 0 C0.33 0.66 0.66 1.32 1 2 C0.0625 4.625 0.0625 4.625 -1 7 C-0.01 7.33 0.98 7.66 2 8 C0.35 8.33 -1.3 8.66 -3 9 C-3.75 6.75 -3.75 6.75 -4 4 C-2.0625 1.6875 -2.0625 1.6875 0 0 Z " fill="#9F0F74" transform="translate(317,279)"/>
<path d="M0 0 C2.31 1.98 4.62 3.96 7 6 C3.86650268 7.04449911 3.01031744 6.93423645 0 6 C0 4.02 0 2.04 0 0 Z " fill="#970F70" transform="translate(328,248)"/>
<path d="M0 0 C2.8125 -0.25 2.8125 -0.25 6 0 C7.9375 1.8125 7.9375 1.8125 9 4 C8.67 4.99 8.34 5.98 8 7 C6.66382648 6.02471263 5.3311249 5.04466681 4 4.0625 C3.2575 3.51722656 2.515 2.97195312 1.75 2.41015625 C1.1725 1.94480469 0.595 1.47945312 0 1 C0 0.67 0 0.34 0 0 Z " fill="#8E1068" transform="translate(398,250)"/>
<path d="M0 0 C-3.35458711 2.23639141 -6.06313281 3.17118585 -10 4 C-12.4375 3.125 -12.4375 3.125 -14 2 C-9.15758367 0.66416101 -5.06562383 -0.25328119 0 0 Z " fill="#95106B" transform="translate(409,317)"/>
<path d="M0 0 C0 0.66 0 1.32 0 2 C-0.66 2 -1.32 2 -2 2 C-2 2.99 -2 3.98 -2 5 C-2.66 5 -3.32 5 -4 5 C-4.33 5.99 -4.66 6.98 -5 8 C-5.33 6.02 -5.66 4.04 -6 2 C-3 0 -3 0 0 0 Z " fill="#8F1168" transform="translate(351,204)"/>
<path d="M0 0 C0.66 0 1.32 0 2 0 C3.625 2.5 3.625 2.5 5 5 C4.01 5.33 3.02 5.66 2 6 C1.67 6.66 1.34 7.32 1 8 C0.34 8 -0.32 8 -1 8 C-0.67 5.36 -0.34 2.72 0 0 Z " fill="#A8107C" transform="translate(357,280)"/>
<path d="M0 0 C1.2380014 3.57644848 0.74926071 6.33694766 0 10 C-0.99 10 -1.98 10 -3 10 C-2.49287967 6.28111761 -1.88391785 3.26545761 0 0 Z " fill="#841161" transform="translate(243,252)"/>
<path d="M0 0 C0.33 1.32 0.66 2.64 1 4 C-0.98 5.32 -2.96 6.64 -5 8 C-5.66 7.67 -6.32 7.34 -7 7 C-4.69 4.69 -2.38 2.38 0 0 Z " fill="#93116A" transform="translate(346,248)"/>
<path d="M0 0 C3.125 0.25 3.125 0.25 5 1.75 C5.37125 2.245 5.7425 2.74 6.125 3.25 C5.465 3.25 4.805 3.25 4.125 3.25 C4.125 3.91 4.125 4.57 4.125 5.25 C3.465 5.25 2.805 5.25 2.125 5.25 C1.125 4.25 0.125 3.25 -0.875 2.25 C-1.865 1.92 -2.855 1.59 -3.875 1.25 C-2.875 0.25 -2.875 0.25 0 0 Z " fill="#8C1065" transform="translate(428.875,169.75)"/>
<path d="M0 0 C0.99 0 1.98 0 3 0 C3 1.32 3 2.64 3 4 C0.5 5.75 0.5 5.75 -2 7 C-1.125 1.125 -1.125 1.125 0 0 Z " fill="#A01177" transform="translate(420,304)"/>
<path d="M0 0 C0.66 0 1.32 0 2 0 C2 2.31 2 4.62 2 7 C0.35 7 -1.3 7 -3 7 C-2.67 6.01 -2.34 5.02 -2 4 C-1.34 4 -0.68 4 0 4 C0 2.68 0 1.36 0 0 Z " fill="#911367" transform="translate(321,272)"/>
<path d="M0 0 C4.6875 0.78125 4.6875 0.78125 9.375 1.5625 C10.674375 1.7790625 10.674375 1.7790625 12 2 C12 2.33 12 2.66 12 3 C8.04 3 4.08 3 0 3 C0 2.01 0 1.02 0 0 Z " fill="#8C0B63" transform="translate(442,239)"/>
<path d="M0 0 C2 1.3125 2 1.3125 4 3 C4 3.99 4 4.98 4 6 C4.99 6.33 5.98 6.66 7 7 C6.34 7.66 5.68 8.32 5 9 C1.9083091 6.47043472 1.09068668 3.77545388 0 0 Z " fill="#AB117A" transform="translate(344,175)"/>
<path d="M0 0 C0 0.66 0 1.32 0 2 C-3.465 3.485 -3.465 3.485 -7 5 C-7.33 4.34 -7.66 3.68 -8 3 C-7.34 3 -6.68 3 -6 3 C-6 2.34 -6 1.68 -6 1 C-3 0 -3 0 0 0 Z " fill="#901262" transform="translate(416,312)"/>
<path d="M0 0 C0.66 0.33 1.32 0.66 2 1 C1.67 1.99 1.34 2.98 1 4 C-0.65 3.67 -2.3 3.34 -4 3 C-4.33 3.66 -4.66 4.32 -5 5 C-5.66 4.34 -6.32 3.68 -7 3 C-4.69631264 1.93347808 -2.35981813 0.93578995 0 0 Z " fill="#A90E71" transform="translate(307,292)"/>
<path d="M0 0 C0.98120464 3.05263664 0.98120464 4.94736336 0 8 C-0.99 8 -1.98 8 -3 8 C-2.45276317 4.62537285 -1.9451 2.91765 0 0 Z " fill="#881061" transform="translate(331,198)"/>
<path d="M0 0 C4.22797927 3.08290155 4.22797927 3.08290155 6 5 C6.375 7.8125 6.375 7.8125 6 10 C5.67 8.68 5.34 7.36 5 6 C3.68 5.67 2.36 5.34 1 5 C0.67 3.35 0.34 1.7 0 0 Z " fill="#92126B" transform="translate(438,176)"/>
<path d="M0 0 C-1.28965176 1.37562854 -2.62689293 2.70766393 -4 4 C-4.66 4 -5.32 4 -6 4 C-6 2.68 -6 1.36 -6 0 C-3.50907189 -1.24546405 -2.58919267 -0.7767578 0 0 Z " fill="#981063" transform="translate(322,308)"/>
<path d="M0 0 C0.66 0.33 1.32 0.66 2 1 C1.01 2.485 1.01 2.485 0 4 C-3.125 4.1875 -3.125 4.1875 -6 4 C-3.94766315 1.7522025 -2.99332739 0.9977758 0 0 Z " fill="#890E64" transform="translate(361,173)"/>
<path d="M0 0 C2.0625 0.4375 2.0625 0.4375 4 1 C2.35 2.65 0.7 4.3 -1 6 C-1.042721 4.33388095 -1.04063832 2.66617115 -1 1 C-0.67 0.67 -0.34 0.34 0 0 Z " fill="#920F5F" transform="translate(425,299)"/>
<path d="M0 0 C1 3 1 3 0.0625 5.1875 C-0.4634375 6.0846875 -0.4634375 6.0846875 -1 7 C-2.32 6.67 -3.64 6.34 -5 6 C-3.35 4.02 -1.7 2.04 0 0 Z " fill="#92126B" transform="translate(352,241)"/>
<path d="M0 0 C0.99 0.33 1.98 0.66 3 1 C3.33 2.65 3.66 4.3 4 6 C2.0625 5.1875 2.0625 5.1875 0 4 C-0.33 3.01 -0.66 2.02 -1 1 C-0.67 0.67 -0.34 0.34 0 0 Z " fill="#9E0F6A" transform="translate(434,236)"/>
<path d="M0 0 C3.465 1.485 3.465 1.485 7 3 C7 3.66 7 4.32 7 5 C7.66 5.33 8.32 5.66 9 6 C8.01 6.33 7.02 6.66 6 7 C6 6.01 6 5.02 6 4 C5.01 4.33 4.02 4.66 3 5 C2.67 4.01 2.34 3.02 2 2 C1.34 2 0.68 2 0 2 C0 1.34 0 0.68 0 0 Z " fill="#8E136A" transform="translate(409,230)"/>
<path d="M0 0 C0.99 0.33 1.98 0.66 3 1 C3 4.63 3 8.26 3 12 C0.8008587 7.60171741 0.48144941 4.81449408 0 0 Z " fill="#850E61" transform="translate(423,217)"/>
<path d="M0 0 C0.99 0 1.98 0 3 0 C3.33 2.64 3.66 5.28 4 8 C1.84622436 5.37801226 0.59927826 3.35595828 0 0 Z " fill="#850D5E" transform="translate(418,207)"/>
</svg>
